<svg id="svg" version="1.1" xmlns="http://www.w3.org/2000/svg" xmlns:xlink="http://www.w3.org/1999/xlink" width="400" height="264.087061668682" viewBox="0, 0, 400,264.087061668682"><g id="svgg"><path id="path0" d="M5.614 0.594 C 5.660 0.821,5.376 0.901,4.710 0.850 C 3.917 0.789,3.707 0.877,3.562 1.336 C 3.440 1.721,3.228 1.857,2.890 1.769 C 2.304 1.615,1.685 2.269,1.796 2.925 C 1.844 3.208,1.660 3.459,1.325 3.565 C 0.879 3.707,0.789 3.923,0.850 4.710 C 0.901 5.376,0.821 5.660,0.594 5.614 C 0.044 5.504,0.116 258.539,0.667 258.751 C 0.951 258.860,1.020 259.104,0.900 259.580 C 0.774 260.084,0.879 260.382,1.315 260.761 C 1.635 261.039,1.830 261.376,1.748 261.509 C 1.563 261.808,2.485 262.685,2.728 262.442 C 2.824 262.345,3.138 262.537,3.425 262.868 C 3.817 263.321,4.113 263.428,4.621 263.300 C 5.097 263.181,5.341 263.250,5.450 263.534 C 5.662 264.085,394.232 264.157,394.122 263.606 C 394.078 263.390,394.353 263.290,394.914 263.315 C 395.386 263.336,395.773 263.247,395.773 263.117 C 395.773 262.986,395.951 262.880,396.169 262.880 C 396.387 262.880,396.565 262.701,396.565 262.483 C 396.565 262.024,396.870 261.969,397.259 262.358 C 397.443 262.542,397.683 262.458,398.013 262.093 C 398.285 261.792,398.363 261.559,398.192 261.559 C 398.024 261.559,397.886 261.380,397.886 261.162 C 397.886 260.945,398.065 260.766,398.283 260.766 C 398.501 260.766,398.679 260.588,398.679 260.370 C 398.679 260.152,398.786 259.974,398.916 259.974 C 399.047 259.974,399.136 259.587,399.114 259.115 C 399.089 258.553,399.190 258.279,399.406 258.322 C 399.669 258.375,399.725 247.767,399.684 205.878 C 399.653 173.777,399.565 158.195,399.458 165.786 C 399.361 172.616,399.266 179.363,399.245 180.779 L 399.207 183.355 394.599 183.355 C 391.813 183.355,389.927 183.251,389.828 183.091 C 389.732 182.935,388.113 182.827,385.865 182.827 C 383.775 182.827,382.001 182.723,381.922 182.595 C 381.843 182.467,380.052 182.277,377.942 182.171 C 375.832 182.066,374.040 181.873,373.959 181.743 C 373.879 181.612,373.114 181.506,372.259 181.506 C 371.404 181.506,370.631 181.387,370.542 181.242 C 370.452 181.096,369.798 180.978,369.089 180.978 C 368.379 180.978,367.725 180.859,367.635 180.713 C 367.546 180.568,366.773 180.449,365.918 180.449 C 365.063 180.449,364.291 180.330,364.201 180.185 C 364.111 180.040,363.635 179.921,363.144 179.921 C 362.653 179.921,362.185 179.814,362.104 179.684 C 362.024 179.554,361.006 179.363,359.841 179.260 C 358.677 179.157,357.659 178.966,357.579 178.836 C 357.498 178.706,356.962 178.600,356.388 178.600 C 355.385 178.600,355.159 178.533,353.834 177.848 C 353.510 177.680,352.948 177.543,352.588 177.543 C 352.227 177.543,351.510 177.306,350.995 177.017 C 350.480 176.728,349.582 176.415,349.000 176.322 C 348.417 176.229,347.877 176.049,347.799 175.923 C 347.721 175.797,347.196 175.694,346.631 175.694 C 346.067 175.694,345.532 175.575,345.443 175.429 C 345.353 175.284,344.996 175.165,344.650 175.165 C 344.304 175.165,343.947 175.046,343.857 174.901 C 343.768 174.756,343.411 174.637,343.065 174.637 C 342.719 174.637,342.366 174.525,342.282 174.388 C 342.197 174.251,341.594 174.059,340.942 173.961 C 340.289 173.863,339.691 173.678,339.611 173.549 C 339.532 173.421,339.084 173.316,338.616 173.316 C 338.068 173.316,337.630 173.127,337.384 172.787 C 337.175 172.497,336.740 172.259,336.417 172.259 C 336.094 172.259,335.757 172.140,335.667 171.995 C 335.577 171.849,335.221 171.731,334.875 171.731 C 334.528 171.731,334.172 171.612,334.082 171.466 C 333.992 171.321,333.584 171.202,333.174 171.202 C 332.764 171.202,332.281 171.024,332.100 170.806 C 331.920 170.588,331.496 170.410,331.159 170.410 C 330.822 170.410,330.473 170.291,330.383 170.145 C 330.293 170.000,329.930 169.881,329.575 169.881 C 329.220 169.881,328.930 169.762,328.930 169.617 C 328.930 169.472,328.721 169.353,328.465 169.353 C 328.209 169.353,327.852 169.115,327.670 168.824 C 327.489 168.534,327.074 168.295,326.748 168.294 C 326.422 168.293,325.815 168.115,325.399 167.898 C 324.983 167.681,324.444 167.503,324.202 167.503 C 323.961 167.503,323.591 167.266,323.382 166.975 C 323.172 166.684,322.789 166.446,322.531 166.446 C 322.272 166.446,322.061 166.328,322.061 166.182 C 322.061 166.037,321.837 165.918,321.563 165.918 C 321.289 165.918,320.724 165.740,320.308 165.523 C 319.891 165.306,319.310 165.128,319.015 165.127 C 318.720 165.126,318.307 164.888,318.098 164.597 C 317.888 164.306,317.505 164.069,317.247 164.069 C 316.988 164.069,316.777 163.950,316.777 163.804 C 316.777 163.659,316.509 163.532,316.182 163.521 C 315.855 163.510,315.231 163.274,314.795 162.997 C 314.359 162.719,313.760 162.383,313.463 162.251 C 313.167 162.118,312.766 161.819,312.572 161.586 C 312.379 161.353,312.012 161.162,311.757 161.162 C 311.502 161.162,311.135 160.972,310.941 160.739 C 310.748 160.506,310.347 160.203,310.050 160.067 C 309.255 159.701,308.388 159.183,307.862 158.761 C 307.064 158.120,306.237 157.728,305.684 157.728 C 305.391 157.728,305.152 157.637,305.152 157.526 C 305.152 157.317,304.939 157.189,302.981 156.222 C 302.333 155.902,301.651 155.456,301.464 155.231 C 301.277 155.006,300.979 154.822,300.801 154.822 C 300.624 154.822,300.263 154.584,300.000 154.293 C 299.737 154.003,299.371 153.765,299.186 153.765 C 299.001 153.765,298.616 153.468,298.330 153.104 C 298.044 152.741,297.663 152.444,297.483 152.444 C 297.303 152.444,296.962 152.236,296.725 151.982 C 296.238 151.459,295.513 150.974,294.676 150.610 C 294.363 150.474,294.029 150.236,293.933 150.082 C 293.837 149.927,293.218 149.554,292.556 149.252 C 291.894 148.951,291.294 148.476,291.221 148.196 C 291.147 147.917,290.942 147.688,290.763 147.688 C 290.585 147.688,290.223 147.450,289.960 147.160 C 289.697 146.869,289.349 146.631,289.185 146.631 C 289.022 146.631,288.717 146.394,288.507 146.103 C 288.298 145.812,288.004 145.571,287.854 145.566 C 287.387 145.551,286.394 144.585,286.394 144.145 C 286.394 143.914,286.200 143.725,285.962 143.725 C 285.725 143.725,285.337 143.517,285.100 143.263 C 284.607 142.734,283.885 142.253,283.025 141.882 C 282.698 141.740,282.431 141.443,282.431 141.222 C 282.431 141.000,282.271 140.819,282.075 140.819 C 281.880 140.819,281.505 140.581,281.242 140.291 C 280.979 140.000,280.618 139.762,280.439 139.762 C 280.261 139.762,280.052 139.525,279.977 139.235 C 279.766 138.431,279.166 138.351,277.847 138.951 C 277.187 139.252,276.410 139.498,276.120 139.498 C 275.830 139.498,275.519 139.617,275.429 139.762 C 275.340 139.908,274.857 140.026,274.357 140.026 C 273.857 140.026,273.448 140.145,273.448 140.291 C 273.448 140.441,272.660 140.555,271.614 140.555 C 270.605 140.555,269.707 140.674,269.617 140.819 C 269.402 141.167,265.258 141.167,265.258 140.819 C 265.258 140.674,264.604 140.555,263.804 140.555 C 263.005 140.555,262.351 140.436,262.351 140.291 C 262.351 140.145,261.935 140.026,261.427 140.026 C 260.918 140.026,260.502 139.908,260.502 139.762 C 260.502 139.617,260.315 139.498,260.087 139.498 C 258.909 139.498,254.187 135.547,254.168 134.544 C 254.164 134.363,254.070 134.214,253.959 134.214 C 253.656 134.214,252.840 132.191,252.840 131.438 C 252.840 131.076,252.721 130.779,252.576 130.779 C 252.431 130.779,252.312 130.125,252.312 129.326 C 252.312 128.527,252.193 127.873,252.048 127.873 C 251.893 127.873,251.783 126.993,251.783 125.760 C 251.783 124.527,251.893 123.646,252.048 123.646 C 252.193 123.646,252.312 123.111,252.312 122.457 C 252.312 121.803,252.431 121.268,252.576 121.268 C 252.721 121.268,252.840 120.960,252.840 120.582 C 252.840 119.867,253.595 118.362,253.954 118.362 C 254.068 118.362,254.161 118.189,254.161 117.978 C 254.161 117.767,254.761 116.995,255.494 116.262 L 256.826 114.929 256.154 114.204 C 255.785 113.806,255.482 113.373,255.482 113.244 C 255.482 113.114,255.266 112.816,255.001 112.581 C 254.737 112.346,254.444 111.945,254.349 111.691 C 254.255 111.437,254.018 111.229,253.822 111.229 C 253.627 111.229,253.304 110.812,253.104 110.304 C 252.905 109.795,252.608 109.379,252.444 109.379 C 252.280 109.379,251.983 108.963,251.783 108.454 C 251.584 107.946,251.261 107.530,251.067 107.530 C 250.873 107.530,250.611 107.262,250.486 106.935 C 250.361 106.608,250.007 106.114,249.700 105.838 C 249.393 105.561,249.141 105.193,249.141 105.020 C 249.141 104.847,248.904 104.490,248.613 104.227 C 248.322 103.964,248.085 103.603,248.085 103.424 C 248.085 103.246,247.863 103.042,247.592 102.971 C 247.272 102.887,247.035 102.497,246.914 101.854 C 246.802 101.259,246.552 100.820,246.284 100.750 C 245.796 100.622,245.178 99.510,245.178 98.758 C 245.178 98.497,245.000 98.283,244.782 98.283 C 244.564 98.283,244.386 98.123,244.386 97.927 C 244.386 97.732,244.148 97.357,243.857 97.094 C 243.567 96.831,243.329 96.337,243.329 95.996 C 243.329 95.655,243.210 95.376,243.065 95.376 C 242.919 95.376,242.801 95.153,242.801 94.879 C 242.801 94.605,242.579 94.323,242.308 94.252 C 241.988 94.169,241.751 93.778,241.630 93.136 C 241.506 92.477,241.274 92.103,240.934 92.014 C 240.619 91.931,240.423 91.651,240.423 91.283 C 240.423 90.954,240.239 90.533,240.013 90.346 C 239.788 90.159,239.370 89.520,239.084 88.926 C 238.798 88.333,238.466 87.668,238.346 87.450 C 237.692 86.265,237.517 85.825,237.517 85.371 C 237.517 85.092,237.282 84.809,236.988 84.732 C 236.631 84.639,236.460 84.372,236.460 83.908 C 236.460 83.476,236.314 83.223,236.063 83.223 C 235.819 83.223,235.667 82.975,235.667 82.578 C 235.667 82.224,235.548 81.860,235.403 81.770 C 235.258 81.680,235.139 81.395,235.139 81.135 C 235.139 80.875,234.901 80.448,234.610 80.185 C 234.320 79.922,234.082 79.442,234.082 79.118 C 234.082 78.751,233.882 78.477,233.554 78.391 C 233.205 78.300,233.025 78.031,233.025 77.601 C 233.025 76.267,232.679 75.226,232.192 75.099 C 231.841 75.007,231.704 74.725,231.704 74.093 C 231.704 73.610,231.585 73.141,231.440 73.052 C 231.295 72.962,231.176 72.652,231.176 72.364 C 231.176 72.076,230.938 71.585,230.647 71.273 C 230.357 70.961,230.119 70.372,230.119 69.963 C 230.119 69.479,229.981 69.221,229.723 69.221 C 229.447 69.221,229.326 68.943,229.326 68.311 C 229.326 67.811,229.207 67.329,229.062 67.239 C 228.917 67.149,228.798 66.812,228.798 66.489 C 228.798 66.167,228.560 65.731,228.269 65.522 C 227.929 65.277,227.741 64.838,227.741 64.290 C 227.741 63.822,227.622 63.366,227.477 63.276 C 227.332 63.186,227.213 62.644,227.213 62.072 C 227.213 61.322,227.102 61.030,226.816 61.030 C 226.543 61.030,226.420 60.756,226.420 60.147 C 226.420 59.598,226.219 59.081,225.892 58.785 C 225.564 58.488,225.363 57.971,225.363 57.423 C 225.363 56.937,225.244 56.539,225.099 56.539 C 224.954 56.539,224.835 55.885,224.835 55.086 C 224.835 53.970,224.743 53.633,224.439 53.633 C 224.153 53.633,224.042 53.341,224.042 52.592 C 224.042 52.019,223.923 51.477,223.778 51.387 C 223.633 51.297,223.514 50.696,223.514 50.050 C 223.514 49.053,223.435 48.877,222.985 48.877 C 222.512 48.877,222.457 48.701,222.457 47.191 C 222.457 45.753,222.383 45.485,221.953 45.372 C 221.511 45.257,221.426 44.882,221.259 42.314 C 221.106 39.946,220.975 39.302,220.574 38.939 C 220.201 38.601,220.079 38.122,220.079 36.988 C 220.079 35.820,219.961 35.378,219.551 35.007 C 219.121 34.618,219.022 34.193,219.022 32.736 C 219.022 31.749,218.904 30.869,218.758 30.779 C 218.613 30.690,218.494 29.613,218.494 28.386 C 218.494 26.580,218.419 26.156,218.098 26.156 C 217.769 26.156,217.701 25.644,217.701 23.133 C 217.701 21.403,217.588 20.041,217.437 19.947 C 217.277 19.848,217.173 17.911,217.173 15.019 C 217.173 10.477,217.148 10.248,216.645 10.116 C 216.142 9.985,216.116 9.756,216.116 5.385 L 216.116 0.793 218.824 0.754 C 220.314 0.734,227.239 0.638,234.214 0.542 C 241.189 0.446,192.592 0.344,126.222 0.316 C 29.802 0.275,5.561 0.331,5.614 0.594 M109.503 102.506 C 115.869 105.235,117.407 114.364,113.153 124.174 C 112.504 125.671,109.692 131.350,109.031 132.497 C 108.697 133.078,108.123 134.089,107.756 134.742 C 106.351 137.248,105.454 138.745,98.588 150.046 C 95.981 154.336,95.966 153.825,98.754 155.755 C 102.721 158.501,101.986 159.704,97.691 157.496 C 96.231 156.745,95.008 156.163,94.974 156.203 C 94.940 156.242,94.478 156.958,93.947 157.794 C 91.803 161.170,89.864 159.106,91.527 155.218 L 91.978 154.161 91.263 153.633 C 79.618 145.035,72.144 134.941,70.521 125.619 C 67.882 110.468,81.034 105.082,90.498 117.438 C 91.876 119.238,92.467 119.648,92.472 118.809 C 92.473 118.636,93.163 117.127,94.006 115.456 C 99.334 104.887,104.665 100.433,109.503 102.506 M104.441 106.195 C 101.601 107.484,97.212 113.233,94.107 119.732 C 93.106 121.828,93.133 121.510,93.818 123.054 C 95.899 127.753,96.590 131.284,95.560 131.959 C 94.386 132.728,93.868 132.109,92.447 128.239 C 91.538 125.762,91.339 125.947,90.439 130.099 C 90.182 131.285,89.727 131.577,89.320 130.817 C 89.053 130.318,89.380 128.290,90.325 124.577 C 91.294 120.770,84.950 114.617,80.064 114.625 C 70.547 114.639,70.633 125.605,80.249 138.287 C 83.673 142.802,92.685 151.922,93.132 151.324 C 93.161 151.286,93.583 150.482,94.072 149.538 C 95.344 147.076,96.554 145.133,100.897 138.573 C 103.014 135.376,104.880 132.523,105.043 132.232 C 105.206 131.942,105.868 130.812,106.515 129.723 C 107.814 127.533,109.094 124.940,109.776 123.118 C 110.021 122.464,110.325 121.691,110.451 121.400 C 110.752 120.710,111.863 116.991,112.248 115.386 C 113.721 109.242,109.270 104.002,104.441 106.195 M222.658 124.150 C 222.733 138.706,222.658 138.103,224.393 138.229 C 225.584 138.316,226.071 139.305,225.350 140.174 C 224.984 140.615,222.319 140.709,222.061 140.291 C 221.971 140.145,220.960 140.026,219.815 140.026 C 218.670 140.026,217.659 140.145,217.569 140.291 C 217.339 140.663,214.702 140.620,214.320 140.238 C 213.438 139.357,213.938 138.177,215.192 138.177 L 216.380 138.177 216.376 127.543 C 216.372 115.810,216.474 116.538,214.729 115.772 C 213.433 115.203,212.800 113.606,213.871 113.606 C 214.089 113.606,214.267 113.487,214.267 113.342 C 214.267 113.197,214.683 113.078,215.192 113.078 C 215.700 113.078,216.116 112.959,216.116 112.814 C 216.116 112.668,216.415 112.550,216.780 112.550 C 217.146 112.550,217.651 112.445,217.903 112.316 C 218.156 112.188,218.659 111.963,219.022 111.816 C 219.386 111.670,220.099 111.359,220.608 111.126 C 222.737 110.149,222.581 109.155,222.658 124.150 M146.227 111.691 C 146.326 111.945,146.514 113.558,146.646 115.274 C 146.778 116.991,146.955 118.508,147.039 118.645 C 147.276 119.028,146.480 119.683,145.778 119.683 C 145.033 119.683,144.518 119.230,144.518 118.573 C 144.518 118.312,144.428 118.098,144.318 118.098 C 144.208 118.098,143.949 117.714,143.741 117.246 C 141.310 111.753,133.387 113.572,135.315 119.181 C 135.800 120.590,137.241 121.537,140.687 122.710 C 142.453 123.311,144.254 124.205,144.254 124.480 C 144.254 124.603,144.398 124.703,144.574 124.703 C 145.006 124.703,147.160 126.839,147.160 127.268 C 147.160 127.455,147.279 127.609,147.424 127.609 C 147.569 127.609,147.688 127.840,147.688 128.122 C 147.688 128.404,147.807 128.708,147.952 128.798 C 148.280 129.000,148.305 133.786,147.981 134.416 C 147.852 134.668,147.466 135.463,147.123 136.182 C 146.452 137.590,144.713 139.498,144.101 139.498 C 143.894 139.498,143.725 139.617,143.725 139.762 C 143.725 139.908,143.511 140.026,143.250 140.026 C 142.988 140.026,142.630 140.171,142.453 140.347 C 141.991 140.809,135.824 140.783,134.831 140.315 C 134.419 140.121,133.522 139.682,132.837 139.339 C 131.895 138.866,131.542 138.794,131.384 139.040 C 130.892 139.809,130.266 140.104,129.855 139.762 C 129.391 139.377,129.276 134.886,129.723 134.610 C 129.868 134.520,129.987 133.681,129.987 132.745 L 129.987 131.044 131.031 131.044 C 132.066 131.044,132.620 131.838,132.627 133.330 C 132.633 134.513,134.817 137.188,136.275 137.797 C 142.294 140.312,145.708 132.360,139.767 129.664 C 138.820 129.234,137.838 128.774,137.586 128.642 C 137.334 128.510,136.947 128.402,136.727 128.402 C 136.508 128.402,136.328 128.283,136.328 128.137 C 136.328 127.992,136.217 127.873,136.082 127.873 C 133.971 127.873,129.987 123.622,129.987 121.368 C 129.987 120.877,129.868 120.476,129.723 120.476 C 129.577 120.476,129.458 119.948,129.458 119.302 C 129.458 118.657,129.577 118.055,129.723 117.966 C 129.868 117.876,129.987 117.510,129.987 117.152 C 129.987 116.249,131.095 114.585,132.289 113.695 C 132.839 113.285,133.349 112.882,133.421 112.801 C 134.487 111.605,139.095 111.181,143.344 111.888 C 144.159 112.024,144.498 111.967,144.763 111.648 C 145.225 111.092,146.002 111.114,146.227 111.691 M157.662 115.595 C 159.995 118.277,155.637 121.934,152.906 119.586 C 151.467 118.348,152.109 115.355,153.924 114.838 C 155.103 114.502,157.055 114.897,157.662 115.595 M260.296 119.579 C 260.119 119.769,259.974 120.227,259.974 120.597 C 259.974 120.966,259.855 121.268,259.709 121.268 C 259.564 121.268,259.445 121.684,259.445 122.193 C 259.445 122.701,259.326 123.118,259.181 123.118 C 259.023 123.118,258.917 124.130,258.917 125.627 C 258.917 127.125,259.023 128.137,259.181 128.137 C 259.326 128.137,259.445 128.672,259.445 129.326 C 259.445 129.980,259.564 130.515,259.709 130.515 C 259.855 130.515,259.974 130.812,259.974 131.176 C 259.974 131.539,260.092 131.836,260.238 131.836 C 260.383 131.836,260.502 132.067,260.502 132.349 C 260.502 132.631,260.608 132.927,260.737 133.007 C 260.866 133.087,261.052 133.470,261.149 133.858 C 261.339 134.617,263.826 137.120,264.389 137.120 C 264.576 137.120,264.729 137.239,264.729 137.384 C 264.729 137.530,265.019 137.649,265.374 137.649 C 265.729 137.649,266.092 137.768,266.182 137.913 C 266.272 138.058,267.290 138.177,268.444 138.177 C 269.666 138.177,270.542 138.067,270.542 137.913 C 270.542 137.768,270.696 137.649,270.885 137.649 C 272.281 137.649,272.651 137.066,272.653 134.868 L 272.655 132.749 270.542 130.647 C 269.379 129.492,268.428 128.395,268.428 128.210 C 268.428 128.025,268.247 127.873,268.025 127.873 C 267.804 127.873,267.505 127.564,267.361 127.187 C 267.218 126.810,266.875 126.442,266.600 126.370 C 266.324 126.298,266.040 126.014,265.968 125.738 C 265.896 125.463,265.528 125.120,265.151 124.977 C 264.774 124.833,264.465 124.535,264.465 124.313 C 264.465 124.091,264.315 123.910,264.131 123.910 C 263.948 123.910,263.680 123.643,263.537 123.316 C 263.393 122.989,263.016 122.607,262.698 122.467 C 262.380 122.328,262.050 122.031,261.965 121.807 C 261.393 120.303,260.604 119.250,260.296 119.579 M158.617 123.172 C 158.820 123.496,158.809 123.872,158.578 124.512 C 158.142 125.717,158.135 136.086,158.569 137.287 C 158.844 138.047,159.011 138.161,159.956 138.230 C 160.915 138.301,161.040 138.389,161.116 139.052 C 161.260 140.308,160.763 140.621,158.933 140.427 C 157.236 140.247,153.978 140.208,151.783 140.342 L 150.462 140.423 150.381 139.300 L 150.300 138.177 151.504 138.177 L 152.708 138.177 152.708 133.121 C 152.708 127.613,152.601 127.237,150.867 126.687 C 150.166 126.465,150.109 125.021,150.793 124.803 C 151.047 124.721,151.493 124.563,151.783 124.451 C 152.074 124.339,152.787 124.104,153.369 123.929 C 153.950 123.754,154.663 123.516,154.954 123.400 C 157.172 122.512,158.165 122.450,158.617 123.172 M168.671 122.750 C 168.938 122.852,169.089 123.233,169.089 123.806 C 169.089 124.889,169.107 124.891,170.494 123.968 C 173.432 122.013,176.449 122.067,178.634 124.114 L 179.593 125.012 180.880 124.110 C 182.932 122.672,184.915 122.271,186.771 122.919 C 188.001 123.348,190.225 125.608,190.225 126.429 C 190.225 126.770,190.343 127.123,190.489 127.213 C 190.863 127.444,190.840 136.135,190.464 136.511 C 189.965 137.010,190.939 138.177,191.855 138.177 C 193.255 138.177,192.865 140.390,191.445 140.507 C 190.881 140.553,190.292 140.464,190.137 140.309 C 189.778 139.950,186.262 139.933,186.262 140.291 C 186.262 140.734,184.101 140.595,183.574 140.118 C 182.752 139.374,183.122 138.177,184.174 138.177 C 184.563 138.177,184.649 137.728,184.816 134.831 C 185.241 127.457,184.374 125.089,181.694 126.310 C 180.349 126.923,180.185 127.663,180.185 133.115 L 180.185 138.144 181.044 138.226 C 181.992 138.318,182.392 139.410,181.757 140.174 C 181.399 140.606,179.509 140.693,179.260 140.291 C 179.170 140.145,178.338 140.026,177.411 140.026 C 176.483 140.026,175.651 140.145,175.561 140.291 C 175.326 140.671,173.500 140.616,172.947 140.212 C 172.298 139.737,172.463 138.349,173.184 138.217 C 174.330 138.007,174.373 137.806,174.373 132.618 C 174.373 126.651,174.183 126.028,172.361 126.025 C 171.538 126.024,171.105 126.193,170.578 126.720 L 169.881 127.417 169.881 132.797 C 169.881 137.802,169.914 138.177,170.357 138.177 C 171.408 138.177,171.784 139.238,171.029 140.072 C 170.555 140.596,168.713 140.751,168.428 140.291 C 168.338 140.145,167.447 140.026,166.446 140.026 C 165.446 140.026,164.555 140.145,164.465 140.291 C 164.203 140.715,162.437 140.595,161.910 140.118 C 160.933 139.233,161.489 138.177,162.933 138.177 L 163.804 138.177 163.804 133.176 L 163.804 128.176 163.131 127.646 C 162.760 127.354,162.360 127.078,162.241 127.032 C 161.254 126.650,162.161 124.703,163.326 124.703 C 163.589 124.703,163.804 124.584,163.804 124.439 C 163.804 124.293,164.032 124.174,164.311 124.174 C 164.589 124.174,164.857 124.080,164.905 123.964 C 165.144 123.394,167.973 122.482,168.671 122.750 M200.813 123.118 C 200.926 123.336,201.086 123.729,201.167 123.992 C 201.304 124.430,201.388 124.414,202.202 123.793 C 202.689 123.422,203.278 123.118,203.510 123.118 C 203.742 123.118,204.005 122.999,204.095 122.853 C 204.185 122.708,205.136 122.589,206.209 122.589 C 207.281 122.589,208.233 122.708,208.322 122.853 C 208.412 122.999,208.662 123.118,208.877 123.118 C 209.093 123.118,209.524 123.355,209.836 123.646 C 210.148 123.937,210.534 124.174,210.693 124.174 C 211.233 124.174,212.946 127.105,212.946 128.026 C 212.946 128.506,213.065 128.972,213.210 129.062 C 213.355 129.152,213.474 129.694,213.474 130.267 C 213.474 130.839,213.355 131.308,213.210 131.308 C 213.065 131.308,212.946 131.899,212.946 132.621 C 212.946 135.047,210.100 139.498,208.549 139.498 C 208.352 139.498,208.190 139.617,208.190 139.762 C 208.190 139.908,207.959 140.026,207.677 140.026 C 207.395 140.026,207.091 140.145,207.001 140.291 C 206.912 140.436,206.427 140.555,205.925 140.555 C 205.423 140.555,204.785 140.697,204.507 140.870 C 204.116 141.115,203.846 141.115,203.310 140.870 C 202.929 140.697,202.326 140.555,201.969 140.555 L 201.321 140.555 201.321 143.672 C 201.321 145.387,201.430 146.903,201.563 147.041 C 201.696 147.179,201.844 147.589,201.893 147.952 C 201.967 148.505,202.155 148.635,203.038 148.745 C 203.956 148.860,204.106 148.973,204.179 149.605 C 204.293 150.602,203.565 151.332,202.882 150.905 C 202.201 150.480,195.416 150.483,194.734 150.909 C 194.000 151.367,193.344 150.748,193.448 149.694 C 193.504 149.118,193.681 148.859,194.055 148.803 C 194.346 148.760,194.851 148.667,195.178 148.598 L 195.773 148.471 195.773 138.345 C 195.773 127.190,195.888 127.974,194.122 127.091 C 192.873 126.466,193.253 124.703,194.637 124.703 C 194.971 124.703,195.244 124.584,195.244 124.439 C 195.244 124.293,195.424 124.174,195.644 124.174 C 195.864 124.174,196.251 124.069,196.503 123.941 C 196.755 123.813,197.318 123.561,197.754 123.382 C 198.190 123.203,198.725 122.955,198.943 122.832 C 199.526 122.502,200.577 122.662,200.813 123.118 M234.346 123.889 C 234.346 125.061,234.088 125.495,233.393 125.495 C 232.937 125.495,232.761 125.643,232.761 126.024 C 232.761 126.314,232.880 126.552,233.025 126.552 C 233.170 126.552,233.289 126.909,233.289 127.345 C 233.289 127.781,233.408 128.137,233.554 128.137 C 233.699 128.137,233.818 128.554,233.818 129.062 C 233.818 129.571,233.937 129.987,234.082 129.987 C 234.227 129.987,234.346 130.336,234.346 130.764 C 234.346 131.191,234.465 131.614,234.610 131.704 C 234.756 131.794,234.875 132.210,234.875 132.629 C 234.875 133.048,234.993 133.464,235.139 133.554 C 235.284 133.643,235.403 133.531,235.403 133.305 C 235.403 133.078,235.508 132.893,235.637 132.893 C 235.766 132.893,235.952 132.358,236.050 131.704 C 236.148 131.050,236.339 130.515,236.476 130.515 C 236.612 130.515,236.724 130.276,236.724 129.983 C 236.724 129.691,236.861 129.185,237.029 128.860 C 237.670 127.621,237.781 127.340,237.781 126.952 C 237.781 126.732,237.900 126.552,238.045 126.552 C 238.190 126.552,238.309 126.314,238.309 126.024 C 238.309 125.599,238.133 125.495,237.413 125.495 C 236.438 125.495,236.196 125.174,236.196 123.882 L 236.196 123.103 240.089 123.177 C 244.334 123.256,244.402 123.286,244.008 124.856 C 243.882 125.358,243.674 125.495,243.041 125.495 C 242.190 125.495,241.480 126.005,241.480 126.615 C 241.480 126.815,241.305 127.210,241.092 127.492 C 240.878 127.775,240.700 128.213,240.695 128.468 C 240.691 128.722,240.590 128.930,240.472 128.930 C 240.354 128.930,240.094 129.346,239.894 129.855 C 239.695 130.363,239.435 130.779,239.317 130.779 C 239.198 130.779,239.102 131.017,239.102 131.308 C 239.102 131.598,238.983 131.836,238.838 131.836 C 238.692 131.836,238.573 132.015,238.573 132.234 C 238.573 132.452,238.276 133.248,237.913 134.001 C 237.550 134.754,237.252 135.526,237.252 135.717 C 237.252 135.907,237.163 136.064,237.054 136.065 C 236.817 136.068,236.196 137.347,236.196 137.833 C 236.196 138.022,236.077 138.177,235.931 138.177 C 235.786 138.177,235.667 138.308,235.667 138.467 C 235.667 138.990,233.271 144.071,232.959 144.210 C 232.850 144.258,232.761 144.462,232.761 144.663 C 232.761 145.021,231.966 146.899,231.704 147.160 C 231.631 147.232,231.393 147.642,231.175 148.070 C 229.378 151.604,224.306 151.671,224.306 148.161 C 224.306 146.089,227.232 144.696,228.636 146.099 C 228.946 146.409,229.590 145.944,229.590 145.410 C 229.590 145.210,229.709 145.046,229.855 145.046 C 230.000 145.046,230.119 144.927,230.119 144.781 C 230.119 144.635,230.416 143.899,230.779 143.146 C 231.143 142.393,231.440 141.631,231.440 141.452 C 231.440 141.273,231.589 141.077,231.770 141.016 C 232.023 140.931,232.031 140.756,231.805 140.268 C 231.257 139.081,230.954 138.313,230.512 136.988 C 230.270 136.262,229.964 135.461,229.831 135.208 C 229.699 134.956,229.590 134.510,229.590 134.218 C 229.590 133.925,229.472 133.686,229.326 133.686 C 229.181 133.686,229.062 133.448,229.062 133.157 C 229.062 132.867,228.943 132.629,228.798 132.629 C 228.653 132.629,228.534 132.332,228.534 131.968 C 228.534 131.605,228.440 131.308,228.326 131.308 C 228.211 131.308,227.884 130.535,227.599 129.591 C 227.314 128.646,226.991 127.873,226.882 127.873 C 226.773 127.873,226.684 127.576,226.684 127.213 C 226.684 126.849,226.579 126.552,226.451 126.552 C 226.323 126.552,226.155 126.314,226.079 126.024 C 226.003 125.733,225.743 125.495,225.501 125.495 C 224.820 125.495,224.306 124.822,224.306 123.929 L 224.306 123.118 229.326 123.118 L 234.346 123.118 234.346 123.889 M202.246 126.527 L 201.453 126.991 201.381 131.659 C 201.334 134.713,201.402 136.328,201.579 136.328 C 201.728 136.328,201.849 136.485,201.849 136.678 C 201.849 137.105,202.951 138.177,203.389 138.177 C 203.563 138.177,203.958 138.326,204.265 138.507 C 204.713 138.771,204.849 138.771,204.944 138.507 C 205.010 138.326,205.224 138.177,205.420 138.177 C 205.881 138.177,206.869 136.789,206.869 136.142 C 206.869 135.866,206.998 135.512,207.155 135.355 C 207.448 135.062,207.355 132.176,206.987 130.129 C 206.740 128.756,205.762 127.016,205.054 126.688 C 204.745 126.544,204.491 126.336,204.491 126.225 C 204.491 125.860,203.054 126.053,202.246 126.527 " stroke="none" fill="#fc596a" fill-rule="evenodd"></path><path id="path1" d="M220.608 111.698 C 219.541 112.223,218.589 112.555,215.918 113.334 C 213.561 114.022,213.349 114.614,215.173 115.420 C 217.198 116.316,217.174 116.171,217.165 127.530 C 217.155 138.461,217.174 138.332,215.600 138.487 C 214.739 138.571,213.968 139.287,214.339 139.658 C 214.569 139.889,224.522 139.956,224.888 139.729 C 225.558 139.316,224.807 138.470,223.699 138.390 L 222.589 138.309 222.389 136.724 C 222.280 135.852,222.220 129.790,222.257 123.253 C 222.332 110.082,222.435 110.799,220.608 111.698 M135.492 112.264 C 131.733 113.733,130.110 115.909,130.134 119.445 C 130.165 123.843,132.005 125.866,138.441 128.579 C 142.251 130.185,143.194 131.216,143.196 133.782 C 143.201 141.129,133.392 139.816,131.993 132.282 C 131.826 131.382,131.731 131.284,131.095 131.358 L 130.383 131.440 130.041 135.248 C 129.670 139.384,129.841 140.147,130.863 138.917 C 131.277 138.419,131.441 138.379,132.052 138.632 C 132.442 138.793,133.517 139.242,134.441 139.630 C 139.055 141.566,145.045 139.789,146.885 135.939 C 149.646 130.165,147.199 125.444,140.123 122.888 C 135.947 121.380,134.968 120.506,134.796 118.133 C 134.343 111.875,141.496 111.801,144.623 118.032 C 145.368 119.516,145.492 119.600,146.187 119.089 C 146.599 118.785,146.609 118.480,146.309 115.358 C 145.965 111.777,145.736 111.290,144.792 112.145 C 144.326 112.566,144.156 112.568,142.263 112.177 C 139.591 111.624,137.043 111.657,135.492 112.264 M263.937 112.155 C 254.774 114.231,250.289 122.288,253.271 131.315 C 256.010 139.604,266.258 142.787,276.941 138.667 L 278.996 137.874 278.996 134.095 C 278.996 129.975,279.009 129.937,280.581 129.531 C 281.237 129.362,281.506 129.144,281.506 128.781 C 281.506 128.293,281.242 128.266,275.760 128.198 L 270.013 128.127 270.013 128.757 C 270.013 129.306,270.171 129.408,271.242 129.555 C 273.132 129.814,273.184 129.913,273.184 133.304 C 273.184 137.955,272.702 138.466,268.296 138.502 C 262.315 138.549,258.669 133.671,258.657 125.605 C 258.637 112.922,270.952 108.852,276.355 119.756 C 277.472 122.010,277.857 122.356,278.675 121.837 C 278.946 121.665,278.960 121.035,278.742 118.737 C 278.591 117.150,278.468 115.242,278.468 114.497 C 278.468 112.704,277.973 112.251,277.074 113.221 L 276.427 113.919 275.322 113.355 C 272.484 111.907,267.398 111.371,263.937 112.155 M153.140 115.888 C 151.980 117.049,152.273 118.779,153.760 119.548 C 156.453 120.941,159.298 117.732,157.146 115.727 C 156.245 114.888,154.053 114.976,153.140 115.888 M286.473 115.660 C 283.880 117.698,286.913 121.159,289.768 119.418 C 291.308 118.479,291.541 116.880,290.304 115.727 C 289.556 115.031,287.323 114.992,286.473 115.660 M154.106 124.120 C 150.788 125.217,150.318 125.510,150.998 126.059 C 151.245 126.258,151.792 126.740,152.215 127.132 L 152.984 127.844 152.912 133.076 L 152.840 138.309 151.787 138.395 C 150.754 138.479,150.342 138.773,150.334 139.432 C 150.331 139.685,151.538 139.762,155.501 139.762 L 160.671 139.762 160.586 139.168 C 160.519 138.692,160.291 138.547,159.445 138.441 L 158.388 138.309 158.256 130.779 C 158.101 121.932,158.549 122.650,154.106 124.120 M167.239 123.308 C 167.021 123.390,165.972 123.857,164.908 124.344 C 163.844 124.832,162.869 125.231,162.742 125.231 C 161.863 125.231,162.045 126.208,163.093 127.115 L 164.201 128.075 164.291 132.363 C 164.409 138.020,164.336 138.387,163.069 138.492 C 162.282 138.557,162.070 138.691,162.003 139.168 L 161.918 139.762 166.296 139.762 L 170.674 139.762 170.674 139.102 C 170.674 138.698,170.523 138.441,170.287 138.441 C 169.269 138.441,168.836 129.173,169.763 127.221 C 170.619 125.418,173.257 124.956,174.228 126.439 C 175.342 128.138,175.021 138.164,173.844 138.440 C 172.933 138.654,172.753 139.759,173.628 139.769 C 173.965 139.773,175.845 139.802,177.807 139.835 L 181.374 139.894 181.374 139.234 C 181.374 138.710,181.224 138.556,180.647 138.490 L 179.921 138.406 179.921 132.849 L 179.921 127.293 180.741 126.526 C 181.930 125.416,183.565 125.436,184.521 126.572 C 185.709 127.984,185.514 138.441,184.299 138.441 C 183.830 138.441,183.540 139.216,183.863 139.605 C 184.245 140.065,192.048 139.967,192.337 139.499 C 192.712 138.894,192.316 138.441,191.413 138.441 C 190.200 138.441,190.148 138.193,190.210 132.732 C 190.274 127.164,190.092 126.231,188.651 124.746 C 186.460 122.489,183.557 122.668,179.868 125.289 C 179.488 125.559,179.256 125.440,178.344 124.510 C 176.373 122.500,172.157 122.669,170.097 124.841 C 169.274 125.708,168.824 125.667,168.824 124.724 C 168.824 123.246,168.404 122.870,167.239 123.308 M196.962 124.211 C 195.509 124.798,194.174 125.399,193.995 125.547 C 193.604 125.870,194.015 126.816,194.547 126.816 C 195.989 126.816,196.077 127.389,196.235 137.740 C 196.400 148.607,196.379 148.766,194.768 149.164 C 194.048 149.342,193.791 149.544,193.791 149.934 C 193.791 150.796,203.525 150.754,203.648 149.892 C 203.713 149.435,203.556 149.285,202.855 149.135 C 201.326 148.808,201.321 148.793,201.321 144.036 C 201.321 140.630,201.391 139.727,201.638 139.974 C 202.891 141.227,207.978 139.897,210.110 137.758 C 216.921 130.924,210.054 119.081,202.299 124.287 L 200.925 125.210 200.769 124.471 C 200.420 122.817,200.414 122.817,196.962 124.211 M287.263 124.120 C 283.800 125.265,283.319 125.606,284.266 126.247 C 286.102 127.490,285.990 127.108,286.081 132.386 C 286.184 138.394,286.186 138.388,284.743 138.492 C 283.895 138.554,283.601 138.694,283.530 139.070 C 283.382 139.849,283.670 139.894,288.812 139.894 L 293.659 139.894 293.659 139.234 C 293.659 138.664,293.517 138.555,292.620 138.441 C 291.180 138.258,291.127 137.944,291.185 129.987 C 291.244 122.056,291.653 122.668,287.263 124.120 M319.681 123.364 C 313.377 125.282,311.788 135.108,317.141 139.078 C 319.096 140.527,323.161 140.785,325.631 139.617 C 327.034 138.953,329.458 136.621,329.458 135.935 C 329.458 134.969,328.682 134.951,327.582 135.893 C 324.047 138.919,319.492 136.833,318.993 131.960 L 318.819 130.263 323.808 130.191 L 328.798 130.119 328.883 129.231 C 329.270 125.191,324.233 121.980,319.681 123.364 M224.747 123.558 C 224.364 123.941,224.603 124.677,225.165 124.848 C 226.459 125.243,226.283 124.872,231.432 138.045 C 231.545 138.336,231.772 138.906,231.935 139.312 C 232.418 140.512,232.293 141.073,230.908 143.953 L 229.591 146.692 228.732 146.517 C 226.288 146.020,226.140 146.026,225.479 146.647 C 224.064 147.976,225.042 150.388,226.994 150.379 C 229.088 150.371,230.126 149.304,232.124 145.112 C 233.958 141.265,235.683 137.600,236.135 136.592 C 239.555 128.954,241.636 125.285,242.709 124.998 C 243.274 124.847,243.461 124.637,243.461 124.155 L 243.461 123.514 240.159 123.514 L 236.856 123.514 236.856 124.174 C 236.856 124.698,237.006 124.852,237.582 124.918 C 238.894 125.069,238.842 125.846,237.256 129.855 C 235.002 135.551,235.129 135.516,233.820 130.779 C 233.679 130.271,233.324 129.010,233.031 127.977 C 232.326 125.499,232.347 125.256,233.289 124.927 C 234.112 124.641,234.191 124.501,233.922 123.800 C 233.755 123.365,225.166 123.139,224.747 123.558 M293.576 124.108 C 293.640 124.669,293.817 124.853,294.353 124.915 C 295.430 125.040,296.038 125.905,297.608 129.545 C 299.235 133.318,299.360 133.599,300.994 137.120 C 303.099 141.658,303.596 141.485,306.322 135.271 C 309.673 127.633,311.380 124.967,312.920 124.967 C 313.802 124.967,313.871 124.909,313.871 124.167 L 313.871 123.367 310.106 123.441 C 306.451 123.512,306.338 123.531,306.258 124.096 C 306.192 124.563,306.350 124.724,307.051 124.904 C 308.553 125.291,308.060 127.959,305.529 133.128 L 304.933 134.346 304.248 132.816 C 303.571 131.301,302.863 129.429,302.062 127.031 C 301.602 125.656,301.726 124.969,302.436 124.963 C 303.237 124.956,303.638 124.551,303.445 123.943 C 303.272 123.397,303.131 123.382,298.379 123.382 L 293.492 123.382 293.576 124.108 M323.245 125.393 C 323.494 125.773,323.716 126.635,323.738 127.309 L 323.778 128.534 321.466 128.610 L 319.155 128.686 319.155 127.866 C 319.155 125.327,322.054 123.575,323.245 125.393 M205.633 126.546 C 208.134 128.742,208.254 137.311,205.802 138.579 C 204.409 139.299,202.243 138.590,201.612 137.207 C 200.979 135.816,201.235 126.410,201.915 126.082 C 203.115 125.503,204.666 125.697,205.633 126.546 " stroke="none" fill="#fcf7f7" fill-rule="evenodd"></path><path id="path2" d="M234.214 0.542 C 227.239 0.638,220.314 0.734,218.824 0.754 L 216.116 0.793 216.116 5.385 C 216.116 9.756,216.142 9.985,216.645 10.116 C 217.148 10.248,217.173 10.477,217.173 15.019 C 217.173 17.911,217.277 19.848,217.437 19.947 C 217.588 20.041,217.701 21.403,217.701 23.133 C 217.701 25.644,217.769 26.156,218.098 26.156 C 218.419 26.156,218.494 26.580,218.494 28.386 C 218.494 29.613,218.613 30.690,218.758 30.779 C 218.904 30.869,219.022 31.749,219.022 32.736 C 219.022 34.193,219.121 34.618,219.551 35.007 C 219.961 35.378,220.079 35.820,220.079 36.988 C 220.079 38.122,220.201 38.601,220.574 38.939 C 220.975 39.302,221.106 39.946,221.259 42.314 C 221.426 44.882,221.511 45.257,221.953 45.372 C 222.383 45.485,222.457 45.753,222.457 47.191 C 222.457 48.701,222.512 48.877,222.985 48.877 C 223.435 48.877,223.514 49.053,223.514 50.050 C 223.514 50.696,223.633 51.297,223.778 51.387 C 223.923 51.477,224.042 52.019,224.042 52.592 C 224.042 53.341,224.153 53.633,224.439 53.633 C 224.743 53.633,224.835 53.970,224.835 55.086 C 224.835 55.885,224.954 56.539,225.099 56.539 C 225.244 56.539,225.363 56.937,225.363 57.423 C 225.363 57.971,225.564 58.488,225.892 58.785 C 226.219 59.081,226.420 59.598,226.420 60.147 C 226.420 60.756,226.543 61.030,226.816 61.030 C 227.102 61.030,227.213 61.322,227.213 62.072 C 227.213 62.644,227.332 63.186,227.477 63.276 C 227.622 63.366,227.741 63.822,227.741 64.290 C 227.741 64.838,227.929 65.277,228.269 65.522 C 228.560 65.731,228.798 66.167,228.798 66.489 C 228.798 66.812,228.917 67.149,229.062 67.239 C 229.207 67.329,229.326 67.811,229.326 68.311 C 229.326 68.943,229.447 69.221,229.723 69.221 C 229.981 69.221,230.119 69.479,230.119 69.963 C 230.119 70.372,230.357 70.961,230.647 71.273 C 230.938 71.585,231.176 72.076,231.176 72.364 C 231.176 72.652,231.295 72.962,231.440 73.052 C 231.585 73.141,231.704 73.610,231.704 74.093 C 231.704 74.725,231.841 75.007,232.192 75.099 C 232.679 75.226,233.025 76.267,233.025 77.601 C 233.025 78.031,233.205 78.300,233.554 78.391 C 233.882 78.477,234.082 78.751,234.082 79.118 C 234.082 79.442,234.320 79.922,234.610 80.185 C 234.901 80.448,235.139 80.875,235.139 81.135 C 235.139 81.395,235.258 81.680,235.403 81.770 C 235.548 81.860,235.667 82.224,235.667 82.578 C 235.667 82.975,235.819 83.223,236.063 83.223 C 236.314 83.223,236.460 83.476,236.460 83.908 C 236.460 84.372,236.631 84.639,236.988 84.732 C 237.282 84.809,237.517 85.092,237.517 85.371 C 237.517 85.825,237.692 86.265,238.346 87.450 C 238.466 87.668,238.798 88.333,239.084 88.926 C 239.370 89.520,239.788 90.159,240.013 90.346 C 240.239 90.533,240.423 90.954,240.423 91.283 C 240.423 91.651,240.619 91.931,240.934 92.014 C 241.274 92.103,241.506 92.477,241.630 93.136 C 241.751 93.778,241.988 94.169,242.308 94.252 C 242.579 94.323,242.801 94.605,242.801 94.879 C 242.801 95.153,242.919 95.376,243.065 95.376 C 243.210 95.376,243.329 95.655,243.329 95.996 C 243.329 96.337,243.567 96.831,243.857 97.094 C 244.148 97.357,244.386 97.732,244.386 97.927 C 244.386 98.123,244.564 98.283,244.782 98.283 C 245.000 98.283,245.178 98.497,245.178 98.758 C 245.178 99.510,245.796 100.622,246.284 100.750 C 246.552 100.820,246.802 101.259,246.914 101.854 C 247.035 102.497,247.272 102.887,247.592 102.971 C 247.863 103.042,248.085 103.246,248.085 103.424 C 248.085 103.603,248.322 103.964,248.613 104.227 C 248.904 104.490,249.141 104.847,249.141 105.020 C 249.141 105.193,249.393 105.561,249.700 105.838 C 250.007 106.114,250.361 106.608,250.486 106.935 C 250.611 107.262,250.873 107.530,251.067 107.530 C 251.261 107.530,251.584 107.946,251.783 108.454 C 251.983 108.963,252.280 109.379,252.444 109.379 C 252.608 109.379,252.905 109.795,253.104 110.304 C 253.304 110.812,253.627 111.229,253.822 111.229 C 254.018 111.229,254.255 111.437,254.349 111.691 C 254.444 111.945,254.737 112.346,255.001 112.581 C 255.266 112.816,255.482 113.114,255.482 113.244 C 255.482 113.373,255.759 113.778,256.097 114.143 C 256.435 114.507,256.656 114.972,256.588 115.176 C 256.520 115.379,256.807 115.228,257.226 114.840 C 257.644 114.452,258.127 114.135,258.298 114.135 C 258.469 114.135,258.648 114.041,258.697 113.927 C 258.745 113.813,259.492 113.376,260.356 112.957 C 264.363 111.015,271.043 110.958,274.858 112.834 L 276.400 113.592 277.054 112.815 C 278.180 111.477,278.732 112.145,278.732 114.843 C 278.732 116.035,278.851 117.083,278.996 117.173 C 279.654 117.579,279.304 121.948,278.583 122.334 C 277.658 122.829,277.156 122.464,276.492 120.813 C 275.385 118.059,273.270 115.611,271.202 114.690 C 270.766 114.496,270.203 114.232,269.951 114.104 C 269.320 113.783,265.591 113.808,265.390 114.135 C 265.300 114.280,265.042 114.399,264.818 114.399 C 263.781 114.399,260.181 118.447,260.259 119.526 C 260.270 119.685,260.343 119.657,260.420 119.464 C 260.545 119.150,261.512 120.617,261.965 121.807 C 262.050 122.031,262.380 122.328,262.698 122.467 C 263.016 122.607,263.393 122.989,263.537 123.316 C 263.680 123.643,263.948 123.910,264.131 123.910 C 264.315 123.910,264.465 124.091,264.465 124.313 C 264.465 124.535,264.774 124.833,265.151 124.977 C 265.528 125.120,265.896 125.463,265.968 125.738 C 266.040 126.014,266.324 126.298,266.600 126.370 C 266.875 126.442,267.218 126.810,267.361 127.187 C 267.505 127.564,267.804 127.873,268.025 127.873 C 268.247 127.873,268.428 128.025,268.428 128.210 C 268.428 128.395,269.379 129.492,270.542 130.647 L 272.655 132.749 272.655 131.381 L 272.655 130.014 271.268 129.935 L 269.881 129.855 269.800 128.732 L 269.719 127.609 275.646 127.609 C 282.020 127.609,282.308 127.670,282.121 128.976 C 282.036 129.571,281.647 129.777,279.965 130.120 L 279.216 130.272 279.289 133.903 C 279.376 138.245,279.394 138.208,276.779 139.080 C 276.503 139.171,276.343 139.311,276.423 139.390 C 276.502 139.470,277.125 139.280,277.807 138.970 C 279.164 138.352,279.765 138.425,279.977 139.235 C 280.052 139.525,280.261 139.762,280.439 139.762 C 280.618 139.762,280.979 140.000,281.242 140.291 C 281.505 140.581,281.880 140.819,282.075 140.819 C 282.271 140.819,282.431 141.000,282.431 141.222 C 282.431 141.443,282.698 141.740,283.025 141.882 C 283.885 142.253,284.607 142.734,285.100 143.263 C 285.337 143.517,285.725 143.725,285.962 143.725 C 286.200 143.725,286.394 143.914,286.394 144.145 C 286.394 144.585,287.387 145.551,287.854 145.566 C 288.004 145.571,288.298 145.812,288.507 146.103 C 288.717 146.394,289.022 146.631,289.185 146.631 C 289.349 146.631,289.697 146.869,289.960 147.160 C 290.223 147.450,290.585 147.688,290.763 147.688 C 290.942 147.688,291.147 147.917,291.221 148.196 C 291.294 148.476,291.894 148.951,292.556 149.252 C 293.218 149.554,293.837 149.927,293.933 150.082 C 294.029 150.236,294.363 150.474,294.676 150.610 C 295.513 150.974,296.238 151.459,296.725 151.982 C 296.962 152.236,297.303 152.444,297.483 152.444 C 297.663 152.444,298.044 152.741,298.330 153.104 C 298.616 153.468,299.001 153.765,299.186 153.765 C 299.371 153.765,299.737 154.003,300.000 154.293 C 300.263 154.584,300.624 154.822,300.801 154.822 C 300.979 154.822,301.277 155.006,301.464 155.231 C 301.651 155.456,302.333 155.902,302.981 156.222 C 304.939 157.189,305.152 157.317,305.152 157.526 C 305.152 157.637,305.391 157.728,305.684 157.728 C 306.237 157.728,307.064 158.120,307.862 158.761 C 308.388 159.183,309.255 159.701,310.050 160.067 C 310.347 160.203,310.748 160.506,310.941 160.739 C 311.135 160.972,311.502 161.162,311.757 161.162 C 312.012 161.162,312.379 161.353,312.572 161.586 C 312.766 161.819,313.167 162.118,313.463 162.251 C 313.760 162.383,314.359 162.719,314.795 162.997 C 315.231 163.274,315.855 163.510,316.182 163.521 C 316.509 163.532,316.777 163.659,316.777 163.804 C 316.777 163.950,316.988 164.069,317.247 164.069 C 317.505 164.069,317.888 164.306,318.098 164.597 C 318.307 164.888,318.720 165.126,319.015 165.127 C 319.310 165.128,319.891 165.306,320.308 165.523 C 320.724 165.740,321.289 165.918,321.563 165.918 C 321.837 165.918,322.061 166.037,322.061 166.182 C 322.061 166.328,322.272 166.446,322.531 166.446 C 322.789 166.446,323.172 166.684,323.382 166.975 C 323.591 167.266,323.961 167.503,324.202 167.503 C 324.444 167.503,324.983 167.681,325.399 167.898 C 325.815 168.115,326.422 168.293,326.748 168.294 C 327.074 168.295,327.489 168.534,327.670 168.824 C 327.852 169.115,328.209 169.353,328.465 169.353 C 328.721 169.353,328.930 169.472,328.930 169.617 C 328.930 169.762,329.220 169.881,329.575 169.881 C 329.930 169.881,330.293 170.000,330.383 170.145 C 330.473 170.291,330.822 170.410,331.159 170.410 C 331.496 170.410,331.920 170.588,332.100 170.806 C 332.281 171.024,332.764 171.202,333.174 171.202 C 333.584 171.202,333.992 171.321,334.082 171.466 C 334.172 171.612,334.528 171.731,334.875 171.731 C 335.221 171.731,335.577 171.849,335.667 171.995 C 335.757 172.140,336.094 172.259,336.417 172.259 C 336.740 172.259,337.175 172.497,337.384 172.787 C 337.630 173.127,338.068 173.316,338.616 173.316 C 339.084 173.316,339.532 173.421,339.611 173.549 C 339.691 173.678,340.289 173.863,340.942 173.961 C 341.594 174.059,342.197 174.251,342.282 174.388 C 342.366 174.525,342.719 174.637,343.065 174.637 C 343.411 174.637,343.768 174.756,343.857 174.901 C 343.947 175.046,344.304 175.165,344.650 175.165 C 344.996 175.165,345.353 175.284,345.443 175.429 C 345.532 175.575,346.067 175.694,346.631 175.694 C 347.196 175.694,347.721 175.797,347.799 175.923 C 347.877 176.049,348.417 176.229,349.000 176.322 C 349.582 176.415,350.480 176.728,350.995 177.017 C 351.510 177.306,352.227 177.543,352.588 177.543 C 352.948 177.543,353.480 177.662,353.768 177.807 C 354.057 177.952,354.529 178.190,354.818 178.336 C 355.107 178.481,355.813 178.600,356.388 178.600 C 356.962 178.600,357.498 178.706,357.579 178.836 C 357.659 178.966,358.677 179.157,359.841 179.260 C 361.006 179.363,362.024 179.554,362.104 179.684 C 362.185 179.814,362.653 179.921,363.144 179.921 C 363.635 179.921,364.111 180.040,364.201 180.185 C 364.291 180.330,365.063 180.449,365.918 180.449 C 366.773 180.449,367.546 180.568,367.635 180.713 C 367.725 180.859,368.379 180.978,369.089 180.978 C 369.798 180.978,370.452 181.096,370.542 181.242 C 370.631 181.387,371.404 181.506,372.259 181.506 C 373.114 181.506,373.879 181.612,373.959 181.743 C 374.040 181.873,375.832 182.066,377.942 182.171 C 380.052 182.277,381.843 182.467,381.922 182.595 C 382.001 182.723,383.775 182.827,385.865 182.827 C 388.113 182.827,389.732 182.935,389.828 183.091 C 389.927 183.251,391.804 183.355,394.573 183.355 L 399.154 183.355 399.309 178.798 C 399.395 176.291,399.505 142.497,399.553 103.699 C 399.602 64.901,399.602 36.813,399.553 41.281 C 399.464 49.390,399.333 50.413,398.547 49.141 C 398.454 48.990,397.096 48.877,395.376 48.877 C 393.657 48.877,392.299 48.764,392.206 48.613 C 392.116 48.468,391.462 48.349,390.753 48.349 C 390.044 48.349,389.390 48.230,389.300 48.085 C 389.210 47.939,388.675 47.820,388.111 47.820 C 387.547 47.820,387.019 47.713,386.937 47.581 C 386.856 47.449,386.205 47.261,385.490 47.163 C 384.727 47.058,384.001 46.775,383.732 46.477 C 383.480 46.199,383.061 45.971,382.802 45.971 C 382.542 45.971,382.256 45.852,382.166 45.707 C 382.077 45.561,381.776 45.443,381.498 45.443 C 381.221 45.443,380.596 45.219,380.109 44.946 C 379.623 44.672,378.854 44.368,378.402 44.268 C 377.950 44.169,377.440 43.919,377.269 43.714 C 376.859 43.220,375.470 42.536,374.876 42.536 C 374.616 42.536,374.332 42.421,374.245 42.279 C 374.157 42.138,373.645 41.817,373.106 41.566 C 372.568 41.315,371.935 40.896,371.700 40.634 C 371.465 40.373,371.158 40.159,371.019 40.159 C 370.669 40.159,369.617 39.006,369.617 38.622 C 369.617 38.450,369.453 38.309,369.253 38.309 C 369.053 38.309,368.731 38.118,368.537 37.885 C 368.344 37.652,367.902 37.354,367.555 37.222 C 367.208 37.090,366.869 36.770,366.801 36.512 C 366.733 36.254,366.418 35.928,366.100 35.789 C 365.782 35.649,365.404 35.268,365.261 34.941 C 365.118 34.614,364.873 34.346,364.718 34.346 C 364.359 34.346,362.748 32.695,362.748 32.327 C 362.748 32.175,362.510 31.835,362.219 31.572 C 361.929 31.309,361.691 30.943,361.691 30.758 C 361.691 30.573,361.394 30.188,361.030 29.902 C 360.667 29.616,360.370 29.191,360.370 28.958 C 360.370 28.724,360.155 28.534,359.891 28.534 C 359.589 28.534,359.278 28.192,359.049 27.609 C 358.849 27.100,358.530 26.684,358.339 26.684 C 358.148 26.684,357.992 26.470,357.992 26.209 C 357.992 25.447,357.372 24.344,356.869 24.213 C 356.586 24.139,356.407 23.839,356.407 23.439 C 356.407 23.080,356.229 22.638,356.011 22.457 C 355.793 22.276,355.614 21.912,355.614 21.648 C 355.614 21.383,355.495 21.094,355.350 21.004 C 355.205 20.914,355.086 20.420,355.086 19.907 C 355.086 19.195,354.960 18.940,354.557 18.835 C 354.228 18.749,354.029 18.474,354.029 18.108 C 354.029 17.784,353.803 17.315,353.527 17.064 C 353.151 16.725,352.977 16.072,352.836 14.481 C 352.679 12.709,352.564 12.330,352.149 12.222 C 351.718 12.109,351.651 11.830,351.651 10.141 C 351.651 8.982,351.541 8.190,351.380 8.190 C 351.203 8.190,351.134 6.874,351.182 4.425 L 351.255 0.661 358.917 0.522 C 363.131 0.446,339.650 0.380,306.737 0.376 C 273.824 0.371,241.189 0.446,234.214 0.542 M220.938 110.973 C 220.051 111.329,220.219 111.508,221.139 111.188 C 221.577 111.035,222.118 110.981,222.342 111.066 C 222.575 111.156,222.680 111.111,222.587 110.961 C 222.392 110.645,221.741 110.650,220.938 110.973 M131.423 114.465 L 130.647 115.324 131.506 114.548 C 132.306 113.824,132.486 113.606,132.282 113.606 C 132.236 113.606,131.850 113.993,131.423 114.465 M213.474 114.383 C 213.474 114.811,213.568 115.218,213.683 115.290 C 213.798 115.361,213.845 115.011,213.786 114.513 C 213.657 113.402,213.474 113.327,213.474 114.383 M289.654 114.911 C 291.680 115.682,292.086 118.033,290.429 119.400 C 287.822 121.548,283.971 119.146,285.446 116.292 C 286.115 114.999,288.138 114.335,289.654 114.911 M214.267 115.544 C 214.267 115.612,214.651 115.802,215.119 115.965 C 215.588 116.129,215.856 116.154,215.714 116.021 C 215.413 115.739,214.267 115.362,214.267 115.544 M216.380 127.292 L 216.512 138.045 216.582 127.493 C 216.620 121.690,216.560 116.851,216.450 116.740 C 216.339 116.629,216.308 121.378,216.380 127.292 M129.565 118.202 C 129.487 118.405,129.464 119.029,129.513 119.589 C 129.597 120.533,129.613 120.506,129.729 119.220 C 129.857 117.804,129.816 117.548,129.565 118.202 M253.289 119.137 C 253.042 119.555,252.845 120.057,252.852 120.252 C 252.858 120.448,253.105 120.151,253.399 119.592 C 254.030 118.397,253.941 118.033,253.289 119.137 M157.596 122.826 C 158.316 122.985,158.385 123.093,158.356 124.011 C 158.335 124.665,158.403 124.896,158.550 124.664 C 159.178 123.673,158.598 122.568,157.477 122.620 C 156.849 122.650,156.857 122.664,157.596 122.826 M173.772 122.780 C 174.241 122.838,175.073 122.839,175.622 122.782 C 176.170 122.725,175.786 122.677,174.769 122.676 C 173.752 122.675,173.303 122.721,173.772 122.780 M184.482 122.779 C 184.883 122.839,185.478 122.838,185.803 122.775 C 186.128 122.712,185.799 122.663,185.073 122.665 C 184.346 122.667,184.080 122.718,184.482 122.779 M199.105 122.806 C 199.031 122.925,199.321 122.971,199.750 122.908 C 200.178 122.845,200.528 122.747,200.528 122.691 C 200.528 122.490,199.236 122.594,199.105 122.806 M204.136 122.787 C 204.069 122.896,205.001 122.985,206.209 122.985 C 207.416 122.985,208.349 122.896,208.282 122.787 C 208.214 122.678,207.281 122.589,206.209 122.589 C 205.136 122.589,204.203 122.678,204.136 122.787 M291.380 122.827 C 291.673 123.013,291.733 124.354,291.696 129.920 C 291.641 138.138,291.647 138.177,293.010 138.177 C 294.090 138.177,294.516 138.728,294.201 139.720 C 294.057 140.173,293.673 140.205,288.701 140.183 L 283.355 140.159 283.355 139.234 C 283.355 138.335,283.387 138.307,284.478 138.228 L 285.601 138.147 285.601 132.869 L 285.601 127.591 284.670 127.042 C 283.115 126.124,283.007 124.703,284.492 124.703 C 284.794 124.703,285.115 124.584,285.205 124.439 C 285.295 124.293,285.638 124.174,285.969 124.174 C 286.299 124.174,286.658 124.086,286.766 123.978 C 287.365 123.379,290.871 122.505,291.380 122.827 M324.603 122.918 C 327.052 123.573,329.128 126.222,329.262 128.866 L 329.326 130.119 324.373 130.191 L 319.419 130.263 319.419 131.678 C 319.419 136.416,324.192 138.680,327.413 135.469 C 328.306 134.579,329.334 134.504,329.546 135.312 C 329.896 136.651,328.168 138.750,325.676 140.012 C 324.269 140.724,319.435 140.941,318.814 140.320 C 318.652 140.158,318.311 140.026,318.056 140.026 C 317.258 140.026,315.157 137.754,314.269 135.931 C 313.413 134.174,313.498 127.609,314.377 127.609 C 314.463 127.609,314.689 127.260,314.878 126.833 C 316.273 123.680,320.736 121.884,324.603 122.918 M178.437 124.174 C 179.068 124.756,179.657 125.231,179.746 125.231 C 179.836 125.231,179.393 124.756,178.762 124.174 C 178.132 123.593,177.543 123.118,177.453 123.118 C 177.364 123.118,177.806 123.593,178.437 124.174 M200.823 123.548 C 200.806 123.857,201.001 124.273,201.255 124.472 C 201.657 124.788,201.678 124.783,201.415 124.439 C 201.249 124.221,201.055 123.804,200.984 123.514 C 200.860 123.012,200.852 123.014,200.823 123.548 M236.196 123.889 C 236.196 124.959,236.442 125.495,236.935 125.495 C 237.284 125.495,237.274 125.437,236.870 125.142 C 236.521 124.887,236.421 124.557,236.510 123.953 C 236.577 123.494,236.534 123.118,236.414 123.118 C 236.294 123.118,236.196 123.465,236.196 123.889 M243.805 123.938 C 243.887 124.499,243.777 124.839,243.427 125.104 C 242.999 125.428,242.991 125.480,243.367 125.487 C 244.022 125.500,244.477 123.633,243.905 123.279 C 243.786 123.206,243.741 123.502,243.805 123.938 M303.783 123.977 C 303.879 124.818,303.319 125.495,302.529 125.495 C 301.931 125.495,301.845 125.783,302.233 126.490 C 302.372 126.742,302.796 127.900,303.175 129.062 C 303.555 130.225,303.976 131.382,304.112 131.634 C 304.248 131.887,304.359 132.222,304.359 132.380 C 304.359 133.088,305.109 133.444,305.300 132.828 C 305.503 132.173,306.376 130.119,306.759 129.396 C 306.892 129.144,307.001 128.767,307.001 128.559 C 307.001 128.351,307.119 128.142,307.262 128.093 C 307.817 127.906,307.915 125.496,307.367 125.487 C 306.506 125.472,305.897 124.815,305.991 123.999 L 306.077 123.250 310.172 123.250 L 314.267 123.250 314.351 123.977 C 314.461 124.938,313.859 125.495,312.713 125.495 C 311.706 125.495,310.844 126.470,309.791 128.798 C 309.528 129.379,308.546 131.460,307.609 133.421 C 306.672 135.383,305.528 137.789,305.066 138.767 C 303.860 141.323,302.802 141.489,301.690 139.294 C 301.342 138.607,300.968 138.005,300.859 137.957 C 300.750 137.908,300.661 137.712,300.661 137.519 C 300.661 137.327,300.432 136.713,300.152 136.154 C 299.187 134.228,298.811 133.339,298.811 132.985 C 298.811 132.789,298.692 132.629,298.547 132.629 C 298.402 132.629,298.283 132.449,298.283 132.229 C 298.283 132.009,298.174 131.623,298.040 131.370 C 297.715 130.755,296.787 128.638,296.242 127.267 C 295.696 125.892,295.318 125.495,294.558 125.495 C 293.389 125.495,292.379 123.681,293.329 123.290 C 293.511 123.215,295.918 123.175,298.679 123.202 L 303.699 123.250 303.783 123.977 M251.783 125.760 C 251.783 126.922,251.873 127.873,251.982 127.873 C 252.090 127.874,252.180 126.923,252.180 125.760 C 252.180 124.598,252.090 123.647,251.982 123.647 C 251.873 123.646,251.783 124.597,251.783 125.760 M211.392 125.231 C 211.860 125.812,212.289 126.288,212.347 126.288 C 212.550 126.288,210.962 124.186,210.754 124.180 C 210.638 124.177,210.925 124.650,211.392 125.231 M320.481 125.561 C 318.842 128.083,318.945 128.402,321.400 128.402 L 323.382 128.402 323.382 127.335 C 323.382 125.220,321.464 124.047,320.481 125.561 M241.034 127.015 C 240.944 127.269,240.820 127.596,240.759 127.741 C 240.698 127.886,240.835 127.775,241.064 127.492 C 241.479 126.980,241.604 126.552,241.339 126.552 C 241.262 126.552,241.125 126.760,241.034 127.015 M190.418 128.203 C 190.608 129.691,190.753 129.803,190.753 128.461 C 190.753 127.864,190.645 127.309,190.514 127.228 C 190.378 127.144,190.336 127.563,190.418 128.203 M163.909 133.421 C 163.909 135.528,163.951 136.390,164.001 135.337 C 164.051 134.283,164.051 132.559,164.001 131.506 C 163.951 130.452,163.909 131.314,163.909 133.421 M252.840 131.951 C 252.840 132.349,253.788 134.214,253.990 134.214 C 254.117 134.214,254.030 133.921,253.795 133.563 C 253.561 133.205,253.369 132.736,253.369 132.522 C 253.369 132.307,253.250 132.058,253.104 131.968 C 252.959 131.878,252.840 131.871,252.840 131.951 M259.986 132.034 C 259.992 132.143,260.293 132.768,260.654 133.421 C 261.023 134.089,261.236 134.321,261.141 133.950 C 261.047 133.587,260.865 133.176,260.736 133.038 C 260.608 132.900,260.502 132.573,260.502 132.312 C 260.502 132.050,260.383 131.836,260.238 131.836 C 260.092 131.836,259.979 131.925,259.986 132.034 M190.485 134.796 C 190.415 135.771,190.452 136.472,190.569 136.354 C 190.686 136.237,190.744 135.439,190.698 134.583 L 190.614 133.025 190.485 134.796 M129.560 134.859 C 129.479 135.069,129.460 135.455,129.517 135.718 C 129.582 136.016,129.672 135.873,129.758 135.337 C 129.902 134.437,129.808 134.212,129.560 134.859 M254.161 134.701 C 254.161 134.824,254.417 135.151,254.730 135.428 L 255.300 135.931 254.832 135.205 C 254.350 134.456,254.161 134.314,254.161 134.701 M262.221 135.801 C 262.485 136.092,262.755 136.276,262.822 136.210 C 262.965 136.067,262.212 135.271,261.933 135.271 C 261.827 135.271,261.957 135.509,262.221 135.801 M230.427 136.869 C 230.582 137.313,230.757 137.627,230.817 137.567 C 230.948 137.436,230.450 136.063,230.271 136.063 C 230.203 136.063,230.273 136.426,230.427 136.869 M263.391 136.672 C 263.879 137.301,264.729 137.760,264.729 137.394 C 264.729 137.243,264.590 137.120,264.420 137.120 C 264.250 137.120,263.865 136.912,263.566 136.658 C 263.044 136.215,263.037 136.216,263.391 136.672 M257.071 137.843 C 257.077 138.150,259.709 139.537,259.709 139.234 C 259.709 139.088,259.588 138.970,259.440 138.970 C 259.292 138.970,258.697 138.671,258.119 138.306 C 257.541 137.941,257.069 137.733,257.071 137.843 M161.603 138.617 C 161.275 138.946,161.424 139.678,161.910 140.118 C 162.398 140.559,164.196 140.727,164.427 140.352 C 164.496 140.240,164.085 140.193,163.513 140.248 C 162.268 140.367,161.601 139.910,161.765 139.052 C 161.891 138.394,161.873 138.347,161.603 138.617 M183.267 138.617 C 182.448 139.437,183.703 140.623,185.244 140.485 L 186.394 140.383 185.171 140.337 C 183.825 140.286,183.213 139.806,183.432 138.971 C 183.579 138.406,183.548 138.337,183.267 138.617 M171.233 139.135 C 171.187 139.975,170.547 140.359,169.380 140.248 C 168.808 140.193,168.397 140.240,168.466 140.352 C 169.025 141.256,171.655 140.089,171.388 139.055 C 171.283 138.648,171.259 138.661,171.233 139.135 M160.753 140.011 C 160.615 140.148,159.848 140.305,159.049 140.359 L 157.596 140.457 159.083 140.506 C 160.129 140.540,160.667 140.437,160.898 140.159 C 161.260 139.723,161.153 139.615,160.753 140.011 M181.582 140.056 C 181.420 140.218,180.812 140.305,180.230 140.250 C 179.648 140.194,179.229 140.240,179.298 140.352 C 179.524 140.717,181.430 140.568,181.770 140.159 C 182.152 139.698,182.014 139.624,181.582 140.056 M214.233 140.092 C 214.617 140.582,217.269 140.777,217.541 140.336 C 217.616 140.216,217.028 140.171,216.236 140.237 C 215.258 140.318,214.648 140.240,214.333 139.993 C 213.914 139.664,213.904 139.673,214.233 140.092 M225.179 140.052 C 225.013 140.218,224.264 140.303,223.433 140.251 C 222.633 140.200,222.033 140.248,222.101 140.357 C 222.337 140.737,225.018 140.574,225.363 140.159 C 225.743 139.700,225.608 139.623,225.179 140.052 M150.572 140.374 C 150.691 140.493,151.251 140.551,151.815 140.501 L 152.840 140.412 151.597 140.284 C 150.914 140.214,150.453 140.254,150.572 140.374 M174.373 140.291 L 173.184 140.475 174.291 140.515 C 174.900 140.537,175.472 140.436,175.561 140.291 C 175.651 140.145,175.688 140.044,175.643 140.066 C 175.598 140.088,175.026 140.189,174.373 140.291 M190.133 140.357 C 190.201 140.466,190.717 140.555,191.281 140.555 C 191.845 140.555,192.362 140.466,192.429 140.357 C 192.497 140.248,191.980 140.159,191.281 140.159 C 190.583 140.159,190.066 140.248,190.133 140.357 M265.258 140.885 C 265.258 140.994,266.202 141.083,267.356 141.083 C 268.510 141.083,269.509 140.994,269.576 140.885 C 269.643 140.776,268.699 140.687,267.478 140.687 C 266.257 140.687,265.258 140.776,265.258 140.885 M225.048 146.301 C 224.583 146.843,224.234 147.424,224.373 147.424 C 224.427 147.424,224.735 147.067,225.057 146.631 C 225.694 145.770,225.688 145.556,225.048 146.301 M224.547 149.493 C 224.689 149.760,225.014 150.146,225.267 150.352 C 225.553 150.584,225.489 150.399,225.100 149.868 C 224.406 148.920,224.146 148.744,224.547 149.493 " stroke="none" fill="#fc6c7c" fill-rule="evenodd"></path><path id="path3" d="M105.483 102.367 C 102.769 103.215,99.929 105.828,97.142 110.040 C 95.607 112.360,92.474 118.430,92.472 119.089 C 92.469 119.816,91.688 119.349,90.924 118.164 C 84.693 108.491,73.043 108.275,70.766 117.789 C 68.316 128.026,75.461 141.301,89.109 151.870 C 91.831 153.978,92.202 154.417,91.724 154.967 C 90.668 156.181,90.695 158.796,91.766 159.081 C 92.827 159.362,93.104 159.186,93.902 157.721 C 94.879 155.925,94.850 155.927,97.711 157.415 C 99.671 158.435,100.376 158.685,100.729 158.488 C 101.534 158.037,101.239 157.595,99.161 156.145 C 95.802 153.800,95.905 154.236,97.930 150.932 C 98.890 149.366,100.213 147.193,100.871 146.103 C 101.528 145.013,102.404 143.625,102.816 143.017 C 103.229 142.410,103.567 141.842,103.567 141.756 C 103.567 141.669,104.027 140.859,104.589 139.954 C 116.296 121.119,118.346 111.213,111.941 104.433 C 109.942 102.317,107.819 101.638,105.483 102.367 M108.390 105.803 C 115.815 108.905,113.254 120.570,101.310 138.045 C 98.582 142.035,95.495 146.983,94.179 149.472 C 92.979 151.742,93.149 151.702,91.376 150.139 C 77.053 137.506,69.873 123.922,74.087 117.425 C 77.359 112.380,85.377 114.004,89.140 120.476 C 90.687 123.135,90.719 123.308,90.105 125.710 C 89.251 129.057,89.095 131.122,89.705 131.004 C 90.075 130.933,90.295 130.437,90.627 128.917 C 91.429 125.251,91.427 125.250,93.089 129.590 C 94.031 132.048,94.116 132.157,95.009 132.056 C 96.160 131.924,95.890 127.520,94.575 124.981 C 93.044 122.024,93.026 121.727,94.221 119.346 C 99.448 108.933,104.447 104.155,108.390 105.803 " stroke="none" fill="#fcce39" fill-rule="evenodd"></path><path id="path4" d="M4.491 0.500 C 4.491 0.797,5.179 1.074,5.390 0.862 C 5.708 0.544,5.535 0.264,5.020 0.264 C 4.729 0.264,4.491 0.370,4.491 0.500 M358.917 0.522 L 351.255 0.661 351.182 4.425 C 351.134 6.874,351.203 8.190,351.380 8.190 C 351.541 8.190,351.651 8.982,351.651 10.141 C 351.651 11.830,351.718 12.109,352.149 12.222 C 352.564 12.330,352.679 12.709,352.836 14.481 C 352.977 16.072,353.151 16.725,353.527 17.064 C 353.803 17.315,354.029 17.784,354.029 18.108 C 354.029 18.474,354.228 18.749,354.557 18.835 C 354.960 18.940,355.086 19.195,355.086 19.907 C 355.086 20.420,355.205 20.914,355.350 21.004 C 355.495 21.094,355.614 21.383,355.614 21.648 C 355.614 21.912,355.793 22.276,356.011 22.457 C 356.229 22.638,356.407 23.080,356.407 23.439 C 356.407 23.839,356.586 24.139,356.869 24.213 C 357.372 24.344,357.992 25.447,357.992 26.209 C 357.992 26.470,358.148 26.684,358.339 26.684 C 358.530 26.684,358.849 27.100,359.049 27.609 C 359.278 28.192,359.589 28.534,359.891 28.534 C 360.155 28.534,360.370 28.724,360.370 28.958 C 360.370 29.191,360.667 29.616,361.030 29.902 C 361.394 30.188,361.691 30.573,361.691 30.758 C 361.691 30.943,361.929 31.309,362.219 31.572 C 362.510 31.835,362.748 32.187,362.748 32.354 C 362.748 32.717,364.381 34.346,364.745 34.346 C 364.885 34.346,365.118 34.614,365.261 34.941 C 365.404 35.268,365.782 35.649,366.100 35.789 C 366.418 35.928,366.733 36.254,366.801 36.512 C 366.869 36.770,367.208 37.090,367.555 37.222 C 367.902 37.354,368.344 37.652,368.537 37.885 C 368.731 38.118,369.053 38.309,369.253 38.309 C 369.453 38.309,369.617 38.467,369.617 38.659 C 369.617 39.034,370.696 40.159,371.056 40.159 C 371.175 40.159,371.465 40.373,371.700 40.634 C 371.935 40.896,372.568 41.315,373.106 41.566 C 373.645 41.817,374.157 42.138,374.245 42.279 C 374.332 42.421,374.616 42.536,374.876 42.536 C 375.470 42.536,376.859 43.220,377.269 43.714 C 377.440 43.919,377.950 44.169,378.402 44.268 C 378.854 44.368,379.623 44.672,380.109 44.946 C 380.596 45.219,381.221 45.443,381.498 45.443 C 381.776 45.443,382.077 45.561,382.166 45.707 C 382.256 45.852,382.542 45.971,382.802 45.971 C 383.061 45.971,383.480 46.199,383.732 46.477 C 384.001 46.775,384.727 47.058,385.490 47.163 C 386.205 47.261,386.856 47.449,386.937 47.581 C 387.019 47.713,387.547 47.820,388.111 47.820 C 388.675 47.820,389.210 47.939,389.300 48.085 C 389.390 48.230,390.044 48.349,390.753 48.349 C 391.462 48.349,392.116 48.468,392.206 48.613 C 392.299 48.763,393.619 48.877,395.264 48.877 C 397.073 48.877,398.350 48.997,398.671 49.197 C 399.477 49.701,399.448 50.349,399.639 27.310 C 399.825 4.954,399.784 3.699,398.879 3.699 C 398.769 3.699,398.679 3.466,398.679 3.182 C 398.679 2.515,397.485 1.321,396.818 1.321 C 396.534 1.321,396.301 1.202,396.301 1.057 C 396.301 0.911,396.123 0.793,395.905 0.793 C 395.687 0.793,395.509 0.674,395.509 0.528 C 395.509 0.255,373.947 0.251,358.917 0.522 M0.264 5.020 C 0.264 5.535,0.544 5.708,0.862 5.390 C 1.074 5.179,0.797 4.491,0.500 4.491 C 0.370 4.491,0.264 4.729,0.264 5.020 M106.410 105.603 C 106.739 105.666,107.214 105.664,107.467 105.598 C 107.719 105.532,107.450 105.480,106.869 105.483 C 106.288 105.486,106.081 105.540,106.410 105.603 M109.643 106.556 C 109.643 106.601,110.030 106.987,110.502 107.414 L 111.361 108.190 110.585 107.332 C 109.861 106.531,109.643 106.351,109.643 106.556 M219.884 111.593 C 218.977 111.923,218.155 112.273,218.056 112.371 C 217.958 112.469,217.607 112.550,217.277 112.550 C 216.946 112.550,216.602 112.668,216.513 112.814 C 216.423 112.959,216.083 113.078,215.757 113.078 C 213.786 113.078,212.937 114.986,214.663 115.535 C 215.099 115.674,215.725 116.032,216.053 116.331 L 216.651 116.874 216.582 127.460 L 216.513 138.045 215.391 138.126 C 214.192 138.213,213.558 139.159,214.241 139.842 C 214.708 140.310,225.027 140.300,225.415 139.832 C 226.007 139.119,225.254 138.218,223.989 138.127 L 222.853 138.045 222.721 124.571 C 222.570 109.110,222.875 110.507,219.884 111.593 M115.522 112.153 C 115.525 112.734,115.579 112.941,115.643 112.613 C 115.706 112.284,115.703 111.808,115.637 111.556 C 115.571 111.303,115.519 111.572,115.522 112.153 M222.257 123.253 C 222.220 129.790,222.280 135.852,222.389 136.724 L 222.589 138.309 223.699 138.390 C 224.807 138.470,225.558 139.316,224.888 139.729 C 224.522 139.956,214.569 139.889,214.339 139.658 C 213.968 139.287,214.739 138.571,215.600 138.487 C 217.174 138.332,217.155 138.461,217.165 127.530 C 217.174 116.171,217.198 116.316,215.173 115.420 C 213.349 114.614,213.561 114.022,215.918 113.334 C 218.589 112.555,219.541 112.223,220.608 111.698 C 222.435 110.799,222.332 110.082,222.257 123.253 M135.855 111.791 C 133.120 112.580,129.937 115.640,130.009 117.412 C 130.029 117.886,130.062 117.868,130.237 117.290 C 131.508 113.102,136.403 110.983,142.116 112.148 C 144.166 112.566,144.326 112.566,144.793 112.143 C 145.601 111.412,146.099 111.832,146.129 113.268 C 146.144 113.963,146.255 115.185,146.378 115.984 C 146.563 117.200,146.584 117.027,146.505 114.927 C 146.373 111.440,146.032 110.884,144.629 111.867 C 144.170 112.189,143.853 112.190,142.391 111.877 C 140.455 111.462,137.147 111.418,135.855 111.791 M263.937 111.757 C 263.719 111.898,263.265 112.015,262.929 112.017 C 262.279 112.021,258.845 113.568,258.697 113.923 C 258.648 114.040,258.453 114.135,258.262 114.135 C 257.496 114.135,254.302 117.711,253.530 119.434 C 253.111 120.370,252.635 121.422,252.473 121.771 C 252.163 122.441,252.105 129.869,252.408 130.171 C 252.762 130.526,252.783 130.042,252.508 127.786 C 251.394 118.625,258.061 111.742,268.032 111.761 C 270.364 111.765,273.589 112.470,275.322 113.355 L 276.427 113.919 277.074 113.221 C 277.973 112.251,278.468 112.704,278.468 114.497 C 278.468 115.242,278.591 117.150,278.742 118.737 C 278.960 121.035,278.946 121.665,278.675 121.837 C 277.857 122.356,277.472 122.010,276.355 119.756 C 270.952 108.852,258.637 112.922,258.657 125.605 C 258.669 133.671,262.315 138.549,268.296 138.502 C 272.702 138.466,273.184 137.955,273.184 133.304 C 273.184 129.913,273.132 129.814,271.242 129.555 C 270.171 129.408,270.013 129.306,270.013 128.757 L 270.013 128.127 275.760 128.198 C 281.242 128.266,281.506 128.293,281.506 128.781 C 281.506 129.144,281.237 129.362,280.581 129.531 C 279.009 129.937,278.996 129.975,278.996 134.095 L 278.996 137.874 276.941 138.667 C 266.574 142.665,256.459 139.750,253.448 131.898 C 253.004 130.739,252.864 130.550,252.854 131.094 C 252.846 131.485,252.959 131.878,253.104 131.968 C 253.250 132.058,253.369 132.309,253.369 132.525 C 253.369 133.818,256.718 137.671,258.643 138.594 C 259.226 138.873,259.705 139.191,259.706 139.300 C 259.708 139.409,260.000 139.498,260.354 139.498 C 260.709 139.498,261.073 139.617,261.162 139.762 C 261.252 139.908,261.609 140.026,261.955 140.026 C 262.301 140.026,262.651 140.134,262.732 140.265 C 263.244 141.094,274.378 140.608,274.919 139.733 C 274.999 139.604,275.297 139.498,275.581 139.498 C 275.865 139.498,276.303 139.389,276.556 139.256 C 276.808 139.123,277.455 138.823,277.994 138.588 C 279.361 137.995,279.371 137.959,279.289 133.903 L 279.216 130.272 279.965 130.120 C 281.647 129.777,282.036 129.571,282.121 128.976 C 282.308 127.670,282.020 127.609,275.646 127.609 L 269.719 127.609 269.800 128.732 L 269.881 129.855 271.276 129.935 L 272.670 130.015 272.597 133.632 L 272.523 137.248 271.598 137.700 C 266.697 140.095,259.480 135.326,259.449 129.672 C 259.447 129.281,259.326 128.888,259.181 128.798 C 259.031 128.705,258.917 127.391,258.917 125.760 C 258.917 124.128,259.031 122.814,259.181 122.721 C 259.326 122.631,259.445 122.251,259.445 121.875 C 259.445 119.847,263.293 114.399,264.725 114.399 C 265.001 114.399,265.300 114.280,265.390 114.135 C 265.591 113.808,269.320 113.783,269.951 114.104 C 270.203 114.232,270.766 114.496,271.202 114.690 C 273.270 115.611,275.385 118.059,276.492 120.813 C 277.156 122.464,277.658 122.829,278.583 122.334 C 279.304 121.948,279.654 117.579,278.996 117.173 C 278.851 117.083,278.732 116.035,278.732 114.843 C 278.732 112.145,278.180 111.477,277.054 112.815 L 276.400 113.592 274.858 112.841 C 272.269 111.581,265.282 110.887,263.937 111.757 M137.753 113.596 C 135.788 114.056,134.718 115.597,134.783 117.873 L 134.823 119.287 134.987 117.701 C 135.565 112.128,141.563 112.436,144.375 118.185 C 145.239 119.950,146.896 120.293,146.896 118.705 C 146.896 118.485,146.706 118.552,146.367 118.890 C 145.594 119.664,145.393 119.565,144.623 118.032 C 142.818 114.434,140.518 112.950,137.753 113.596 M115.528 114.927 C 115.528 115.581,115.579 115.849,115.642 115.522 C 115.705 115.195,115.705 114.660,115.642 114.333 C 115.579 114.006,115.528 114.273,115.528 114.927 M88.375 115.192 C 88.943 115.773,89.467 116.248,89.539 116.248 C 89.612 116.248,89.207 115.773,88.639 115.192 C 88.072 114.610,87.548 114.135,87.475 114.135 C 87.403 114.135,87.808 114.610,88.375 115.192 M154.193 114.928 C 152.059 115.590,151.451 117.856,152.993 119.398 C 154.312 120.718,156.757 120.405,157.821 118.781 C 159.233 116.625,156.857 114.102,154.193 114.928 M287.450 114.835 C 285.040 115.629,284.389 117.549,285.950 119.253 C 287.159 120.573,288.935 120.631,290.429 119.400 C 292.857 117.397,290.525 113.823,287.450 114.835 M157.146 115.727 C 159.298 117.732,156.453 120.941,153.760 119.548 C 152.273 118.779,151.980 117.049,153.140 115.888 C 154.053 114.976,156.245 114.888,157.146 115.727 M290.304 115.727 C 291.541 116.880,291.308 118.479,289.768 119.418 C 286.913 121.159,283.880 117.698,286.473 115.660 C 287.323 114.992,289.556 115.031,290.304 115.727 M129.888 120.156 C 130.157 124.464,131.848 126.069,139.721 129.488 C 144.811 131.698,143.802 138.157,138.365 138.173 C 136.134 138.179,133.157 136.268,133.157 134.830 C 133.157 134.654,133.038 134.436,132.893 134.346 C 132.407 134.046,132.621 134.641,133.450 135.892 C 136.477 140.461,143.199 139.006,143.196 133.782 C 143.194 131.216,142.251 130.185,138.441 128.579 C 132.372 126.021,130.566 124.172,130.011 119.947 L 129.751 117.966 129.888 120.156 M135.007 119.622 C 135.007 120.243,138.259 122.595,138.619 122.235 C 138.690 122.164,138.304 121.895,137.762 121.638 C 137.219 121.380,136.377 120.772,135.891 120.285 C 135.404 119.799,135.007 119.501,135.007 119.622 M139.234 122.589 C 139.452 122.730,139.808 122.845,140.026 122.845 C 140.379 122.845,140.379 122.817,140.026 122.589 C 139.808 122.448,139.452 122.333,139.234 122.333 C 138.882 122.333,138.882 122.362,139.234 122.589 M288.726 123.208 C 287.756 123.523,286.874 123.870,286.766 123.978 C 286.658 124.086,286.299 124.174,285.969 124.174 C 285.638 124.174,285.295 124.293,285.205 124.439 C 285.115 124.584,284.794 124.703,284.492 124.703 C 283.007 124.703,283.115 126.124,284.670 127.042 L 285.601 127.591 285.601 132.869 L 285.601 138.147 284.478 138.228 C 283.387 138.307,283.355 138.335,283.355 139.234 L 283.355 140.159 288.701 140.183 C 293.673 140.205,294.057 140.173,294.201 139.720 C 294.516 138.728,294.090 138.177,293.010 138.177 C 291.647 138.177,291.641 138.138,291.696 129.920 C 291.751 121.707,291.950 122.157,288.726 123.208 M319.947 122.891 C 317.685 123.513,315.645 125.099,314.878 126.833 C 314.689 127.260,314.463 127.609,314.377 127.609 C 313.498 127.609,313.413 134.174,314.269 135.931 C 315.157 137.754,317.258 140.026,318.056 140.026 C 318.311 140.026,318.652 140.158,318.814 140.320 C 320.603 142.109,329.458 139.009,329.458 136.594 C 329.458 136.416,328.918 136.872,328.257 137.607 C 324.657 141.611,318.186 141.339,315.405 137.067 C 310.846 130.060,316.796 121.244,324.652 123.367 C 326.961 123.991,329.144 127.068,328.880 129.327 C 328.812 129.908,328.876 130.223,329.049 130.161 C 329.497 130.001,329.246 127.713,328.636 126.416 C 327.217 123.397,323.538 121.904,319.947 122.891 M142.350 123.800 C 144.710 124.948,146.984 127.086,147.412 128.559 C 148.151 131.100,147.964 134.245,146.990 135.660 C 146.565 136.278,146.533 136.592,146.896 136.592 C 147.041 136.592,147.160 136.354,147.160 136.063 C 147.160 135.773,147.265 135.535,147.394 135.535 C 148.009 135.535,148.412 130.601,147.923 129.072 C 147.189 126.782,144.951 124.550,142.184 123.350 C 140.212 122.494,140.331 122.817,142.350 123.800 M154.690 123.558 C 151.021 124.723,150.487 124.989,150.380 125.705 C 150.320 126.106,150.538 126.382,151.173 126.710 C 152.669 127.483,152.691 127.574,152.700 133.076 L 152.708 138.147 151.606 138.228 C 150.901 138.280,150.465 138.452,150.397 138.705 C 150.323 138.978,150.359 139.005,150.512 138.791 C 150.634 138.620,151.207 138.442,151.787 138.395 L 152.840 138.309 152.912 133.076 L 152.984 127.844 152.215 127.132 C 151.792 126.740,151.244 126.257,150.996 126.057 C 150.297 125.493,150.869 125.151,154.361 124.045 C 157.659 123.001,158.140 122.991,158.344 123.960 C 158.435 124.395,158.460 124.343,158.430 123.778 C 158.374 122.718,157.498 122.667,154.690 123.558 M166.711 123.180 C 164.282 124.248,162.723 125.030,162.823 125.130 C 162.887 125.194,163.838 124.832,164.936 124.325 C 168.339 122.753,168.812 122.791,168.820 124.637 C 168.825 125.667,169.249 125.735,170.097 124.841 C 172.157 122.669,176.373 122.500,178.344 124.510 C 179.256 125.440,179.488 125.559,179.868 125.289 C 184.265 122.165,188.816 122.781,189.937 126.651 L 190.177 127.477 190.201 126.735 C 190.230 125.836,188.421 123.763,187.129 123.214 C 185.155 122.376,182.000 123.069,180.215 124.732 L 179.611 125.294 178.643 124.369 C 176.434 122.258,172.968 122.236,170.242 124.316 C 169.311 125.025,169.241 124.992,168.966 123.712 C 168.764 122.768,168.037 122.596,166.711 123.180 M198.151 123.361 C 197.497 123.616,196.724 123.916,196.433 124.029 C 193.189 125.287,192.628 126.082,194.312 127.034 C 195.862 127.910,195.785 127.282,195.710 138.351 L 195.641 148.596 194.518 148.818 C 192.904 149.137,192.923 150.930,194.539 150.842 C 194.709 150.833,194.572 150.714,194.234 150.579 C 193.317 150.212,193.605 149.453,194.771 149.164 C 196.379 148.766,196.400 148.604,196.235 137.740 C 196.077 127.389,195.989 126.816,194.547 126.816 C 193.821 126.816,193.607 125.804,194.249 125.406 C 196.232 124.175,200.054 123.001,200.425 123.508 C 200.780 123.994,200.793 123.992,200.793 123.432 C 200.793 122.709,199.891 122.685,198.151 123.361 M203.831 123.078 C 203.004 123.347,201.585 124.263,201.585 124.528 C 201.585 124.660,201.407 124.619,201.189 124.439 C 200.857 124.163,200.793 124.204,200.793 124.686 C 200.793 125.314,200.759 125.324,202.561 124.111 C 205.970 121.815,211.050 123.618,212.429 127.615 C 212.781 128.633,212.931 128.859,212.937 128.376 C 212.981 124.928,207.661 121.833,203.831 123.078 M224.483 123.294 C 223.824 123.952,224.662 125.468,225.694 125.487 C 225.948 125.492,226.156 125.674,226.156 125.892 C 226.156 126.110,226.275 126.288,226.420 126.288 C 226.565 126.288,226.684 126.468,226.684 126.688 C 226.684 126.908,226.789 127.294,226.918 127.547 C 227.163 128.030,227.386 128.572,228.137 130.515 C 228.888 132.458,229.111 133.001,229.357 133.484 C 229.485 133.736,229.590 134.123,229.590 134.343 C 229.590 134.562,229.709 134.742,229.855 134.742 C 230.226 134.742,230.292 134.946,228.397 130.218 C 226.571 125.666,226.241 125.112,225.195 124.849 C 224.702 124.726,224.557 124.537,224.620 124.099 C 224.721 123.387,233.423 123.017,233.860 123.705 C 234.247 124.316,234.093 124.647,233.289 124.927 C 232.647 125.151,232.504 125.344,232.533 125.944 C 232.558 126.469,232.600 126.528,232.675 126.150 C 232.734 125.856,233.134 125.459,233.564 125.269 C 234.450 124.877,234.689 123.570,233.928 123.278 C 233.358 123.059,224.703 123.074,224.483 123.294 M236.566 123.487 C 236.232 124.356,236.583 125.097,237.450 125.352 C 238.272 125.594,238.769 126.816,238.045 126.816 C 237.900 126.816,237.781 127.090,237.781 127.424 C 237.781 127.758,237.678 128.145,237.552 128.283 C 237.426 128.421,236.999 129.425,236.603 130.515 C 236.206 131.605,235.727 132.842,235.537 133.263 L 235.191 134.030 234.740 132.471 C 234.492 131.613,234.183 130.705,234.053 130.453 C 233.924 130.200,233.818 129.702,233.818 129.345 C 233.818 128.989,233.699 128.623,233.554 128.534 C 233.408 128.444,233.289 128.087,233.289 127.741 C 233.289 127.395,233.158 127.030,232.997 126.931 C 232.806 126.813,232.757 126.923,232.856 127.246 C 232.940 127.518,233.200 128.454,233.436 129.326 C 235.193 135.839,234.903 135.799,237.256 129.855 C 238.842 125.846,238.894 125.069,237.582 124.918 C 237.006 124.852,236.856 124.698,236.856 124.174 L 236.856 123.514 240.159 123.514 L 243.461 123.514 243.461 124.155 C 243.461 124.637,243.274 124.847,242.709 124.998 C 242.296 125.108,241.783 125.414,241.569 125.677 C 240.836 126.581,235.030 138.685,235.233 138.888 C 235.351 139.005,236.113 137.479,239.083 131.176 C 241.266 126.543,241.590 125.949,242.056 125.724 C 242.248 125.632,242.737 125.401,243.144 125.210 C 243.751 124.926,243.869 124.720,243.804 124.057 L 243.725 123.250 240.219 123.176 C 237.345 123.115,236.687 123.171,236.566 123.487 M291.185 129.987 C 291.127 137.944,291.180 138.258,292.620 138.441 C 293.517 138.555,293.659 138.664,293.659 139.234 L 293.659 139.894 288.812 139.894 C 283.670 139.894,283.382 139.849,283.530 139.070 C 283.601 138.694,283.895 138.554,284.743 138.492 C 286.186 138.388,286.184 138.394,286.081 132.386 C 285.990 127.108,286.102 127.490,284.266 126.247 C 283.319 125.606,283.800 125.265,287.263 124.120 C 291.653 122.668,291.244 122.056,291.185 129.987 M293.329 123.290 C 292.379 123.681,293.389 125.495,294.558 125.495 C 295.318 125.495,295.696 125.892,296.242 127.267 C 296.787 128.638,297.715 130.755,298.040 131.370 C 298.174 131.623,298.283 132.009,298.283 132.229 C 298.283 132.449,298.402 132.629,298.547 132.629 C 298.692 132.629,298.811 132.789,298.811 132.985 C 298.811 133.339,299.187 134.228,300.152 136.154 C 300.432 136.713,300.661 137.327,300.661 137.519 C 300.661 137.712,300.750 137.908,300.859 137.957 C 300.968 138.005,301.342 138.607,301.690 139.294 C 302.802 141.489,303.860 141.323,305.066 138.767 C 305.528 137.789,306.672 135.383,307.609 133.421 C 308.546 131.460,309.528 129.379,309.791 128.798 C 310.844 126.470,311.706 125.495,312.713 125.495 C 313.859 125.495,314.461 124.938,314.351 123.977 L 314.267 123.250 310.172 123.250 L 306.077 123.250 305.991 123.999 C 305.897 124.815,306.506 125.472,307.367 125.487 C 307.808 125.494,307.847 125.641,307.704 126.750 C 307.583 127.682,307.612 127.885,307.815 127.538 C 308.407 126.530,308.006 125.150,307.051 124.904 C 306.350 124.724,306.192 124.563,306.258 124.096 C 306.338 123.531,306.451 123.512,310.106 123.441 L 313.871 123.367 313.871 124.167 C 313.871 124.909,313.802 124.967,312.920 124.967 C 311.380 124.967,309.673 127.633,306.322 135.271 C 303.596 141.485,303.099 141.658,300.994 137.120 C 299.360 133.599,299.235 133.318,297.608 129.545 C 296.038 125.905,295.430 125.040,294.353 124.915 C 293.817 124.853,293.640 124.669,293.576 124.108 L 293.492 123.382 298.379 123.382 C 303.131 123.382,303.272 123.397,303.445 123.943 C 303.638 124.551,303.237 124.956,302.436 124.963 C 301.726 124.969,301.602 125.656,302.062 127.031 C 302.863 129.429,303.571 131.301,304.248 132.816 L 304.933 134.346 305.568 133.047 C 305.918 132.332,306.432 131.144,306.712 130.405 C 306.991 129.666,307.302 128.854,307.403 128.600 C 307.511 128.328,307.466 128.137,307.294 128.137 C 307.133 128.137,307.001 128.317,307.001 128.537 C 307.001 128.757,306.892 129.144,306.759 129.396 C 306.376 130.119,305.503 132.173,305.300 132.828 C 305.109 133.444,304.359 133.088,304.359 132.380 C 304.359 132.222,304.248 131.887,304.112 131.634 C 303.976 131.382,303.555 130.225,303.175 129.062 C 302.796 127.900,302.372 126.742,302.233 126.490 C 301.845 125.783,301.931 125.495,302.529 125.495 C 303.319 125.495,303.879 124.818,303.783 123.977 L 303.699 123.250 298.679 123.202 C 295.918 123.175,293.511 123.215,293.329 123.290 M320.290 125.297 C 319.496 126.169,319.155 126.942,319.155 127.866 L 319.155 128.686 321.466 128.610 L 323.778 128.534 323.738 127.309 C 323.659 124.899,321.696 123.754,320.290 125.297 M322.955 125.618 C 323.190 125.976,323.382 126.749,323.382 127.335 L 323.382 128.402 321.400 128.402 C 318.945 128.402,318.842 128.083,320.481 125.561 C 321.029 124.717,322.385 124.748,322.955 125.618 M170.873 125.944 C 169.010 127.138,168.479 138.441,170.287 138.441 C 170.523 138.441,170.674 138.698,170.674 139.102 L 170.674 139.762 166.296 139.762 L 161.918 139.762 162.003 139.168 C 162.070 138.691,162.282 138.557,163.069 138.492 C 164.336 138.387,164.409 138.020,164.291 132.364 L 164.201 128.076 163.166 127.182 C 162.597 126.690,162.062 126.361,161.977 126.451 C 161.892 126.541,162.041 126.749,162.308 126.913 C 163.873 127.880,163.873 127.880,164.010 131.932 C 164.193 137.304,164.033 138.177,162.869 138.177 C 161.890 138.177,161.331 139.143,161.907 139.837 C 162.219 140.213,170.288 140.304,170.872 139.938 C 171.482 139.555,171.265 138.467,170.542 138.286 L 169.881 138.120 169.881 132.646 C 169.881 126.257,169.967 126.024,172.336 126.024 C 174.325 126.024,174.397 126.265,174.312 132.645 L 174.240 138.021 173.605 138.171 C 172.738 138.376,172.305 139.094,172.685 139.696 C 173.126 140.394,181.433 140.392,181.874 139.693 C 182.274 139.059,181.785 138.333,180.885 138.226 L 180.185 138.142 180.185 132.793 L 180.185 127.444 180.926 126.734 C 181.829 125.869,183.254 125.777,184.121 126.529 C 185.237 127.497,185.243 138.177,184.128 138.177 C 183.536 138.177,183.156 139.335,183.579 139.846 C 184.111 140.486,192.444 140.280,192.548 139.624 C 192.613 139.216,192.575 139.184,192.376 139.475 C 192.042 139.965,184.260 140.084,183.863 139.605 C 183.540 139.216,183.830 138.441,184.299 138.441 C 185.514 138.441,185.709 127.984,184.521 126.572 C 183.565 125.436,181.930 125.416,180.741 126.526 L 179.921 127.293 179.921 132.849 L 179.921 138.406 180.647 138.490 C 181.224 138.556,181.374 138.710,181.374 139.234 L 181.374 139.894 177.807 139.835 C 175.845 139.802,173.965 139.773,173.628 139.769 C 172.753 139.759,172.933 138.653,173.844 138.441 C 175.128 138.141,175.363 127.951,174.124 126.309 C 173.522 125.510,171.845 125.322,170.873 125.944 M201.915 126.082 C 201.589 126.240,201.321 126.469,201.321 126.593 C 201.321 126.918,201.646 126.854,202.230 126.412 C 203.934 125.123,206.869 127.223,206.869 129.732 C 206.869 130.146,206.988 130.557,207.133 130.647 C 207.517 130.884,207.459 130.237,206.958 128.685 C 206.162 126.223,203.970 125.091,201.915 126.082 M190.199 132.365 C 190.069 137.909,190.177 138.441,191.434 138.441 C 191.907 138.441,192.355 138.563,192.428 138.712 C 192.502 138.861,192.533 138.831,192.496 138.646 C 192.460 138.461,192.077 138.274,191.647 138.230 C 190.374 138.103,190.241 137.597,190.544 134.048 C 190.718 132.013,190.725 130.283,190.564 129.183 C 190.341 127.660,190.302 128.002,190.199 132.365 M212.950 130.169 C 212.953 130.916,213.020 131.074,213.210 130.779 C 213.544 130.263,213.544 129.533,213.210 129.326 C 213.051 129.228,212.947 129.565,212.950 130.169 M318.992 131.954 C 319.494 136.854,324.045 138.921,327.611 135.869 L 328.737 134.905 329.274 135.550 C 329.651 136.004,329.758 136.052,329.634 135.712 C 329.538 135.445,329.458 135.118,329.458 134.985 C 329.458 134.460,328.104 134.780,327.413 135.469 C 324.190 138.682,319.419 136.416,319.419 131.672 C 319.419 130.786,319.306 130.251,319.118 130.251 C 318.906 130.251,318.869 130.755,318.992 131.954 M130.163 131.220 C 130.066 131.317,130.007 132.119,130.031 133.003 L 130.076 134.610 130.229 133.025 C 130.392 131.350,131.579 130.456,131.915 131.755 C 132.013 132.133,132.045 132.109,132.070 131.638 C 132.100 131.047,130.653 130.729,130.163 131.220 M212.655 132.543 C 212.276 135.860,209.922 138.742,206.605 139.947 C 205.395 140.386,202.061 140.396,201.622 139.960 C 201.356 139.696,201.322 139.715,201.453 140.059 C 202.047 141.621,207.299 140.631,209.809 138.483 C 211.699 136.866,213.056 134.079,212.893 132.153 C 212.818 131.258,212.798 131.290,212.655 132.543 M207.482 133.421 C 207.482 134.366,207.530 134.752,207.589 134.280 C 207.647 133.808,207.647 133.035,207.589 132.563 C 207.530 132.090,207.482 132.477,207.482 133.421 M132.108 132.761 C 132.108 133.052,132.224 133.468,132.365 133.686 C 132.577 134.014,132.621 133.991,132.621 133.554 C 132.621 133.263,132.505 132.847,132.365 132.629 C 132.153 132.301,132.108 132.323,132.108 132.761 M129.628 135.733 C 129.313 137.639,129.427 139.429,129.874 139.601 C 130.356 139.786,131.211 139.390,131.373 138.907 C 131.453 138.670,131.989 138.826,133.231 139.450 C 137.865 141.776,144.245 140.770,146.324 137.384 C 146.602 136.932,146.360 137.071,145.558 137.825 C 142.831 140.386,138.081 141.157,134.441 139.630 C 131.032 138.200,131.349 138.265,130.904 138.900 C 130.063 140.100,129.683 139.378,129.880 136.956 C 130.064 134.680,129.919 133.973,129.628 135.733 M230.119 135.482 C 230.119 135.744,230.220 136.071,230.345 136.209 C 230.469 136.347,230.904 137.435,231.311 138.627 L 232.051 140.795 231.085 142.803 C 230.554 143.907,230.116 144.893,230.113 144.994 C 230.081 145.983,229.117 146.432,227.966 145.993 C 225.362 144.998,223.323 147.538,224.980 149.711 C 225.470 150.353,225.849 150.586,226.367 150.564 C 226.917 150.540,226.959 150.504,226.552 150.405 C 224.863 149.997,224.239 147.811,225.479 146.647 C 226.140 146.026,226.288 146.020,228.732 146.517 L 229.591 146.692 230.908 143.953 C 232.293 141.073,232.418 140.512,231.935 139.312 C 231.306 137.747,231.203 137.479,230.764 136.262 C 230.279 134.918,230.119 134.724,230.119 135.482 M206.967 136.301 C 206.447 138.902,203.027 139.395,201.895 137.033 C 201.456 136.119,201.182 136.262,201.603 137.185 C 202.242 138.588,204.399 139.304,205.802 138.579 C 206.551 138.191,207.672 135.985,207.305 135.619 C 207.213 135.526,207.061 135.833,206.967 136.301 M158.314 137.781 C 158.374 138.180,158.651 138.341,159.448 138.441 C 160.291 138.547,160.519 138.692,160.586 139.168 L 160.671 139.762 155.457 139.762 C 152.589 139.762,150.327 139.847,150.430 139.951 C 150.814 140.334,160.616 140.234,160.940 139.844 C 161.480 139.193,160.792 138.177,159.810 138.177 C 159.332 138.177,158.817 137.979,158.605 137.715 C 158.258 137.281,158.240 137.285,158.314 137.781 M234.267 140.596 C 230.906 147.937,229.674 149.847,228.005 150.297 L 227.081 150.547 227.939 150.571 C 229.493 150.614,231.059 148.540,233.057 143.791 C 233.256 143.319,233.508 142.933,233.618 142.933 C 233.728 142.933,233.818 142.777,233.818 142.586 C 233.818 142.395,234.122 141.609,234.493 140.839 C 234.864 140.069,235.111 139.382,235.040 139.312 C 234.970 139.241,234.622 139.819,234.267 140.596 M201.349 147.854 C 201.315 148.545,201.720 148.892,202.840 149.132 C 203.806 149.338,204.020 150.117,203.236 150.573 C 202.732 150.867,203.138 150.956,203.809 150.698 C 205.060 150.218,204.077 148.759,202.495 148.749 C 202.150 148.746,201.847 148.480,201.664 148.018 C 201.415 147.387,201.374 147.366,201.349 147.854 M0.405 258.994 C 0.291 259.255,0.273 259.542,0.364 259.633 C 0.632 259.901,0.848 259.524,0.725 259.004 C 0.615 258.542,0.601 258.542,0.405 258.994 M399.075 258.917 C 398.860 259.265,399.176 259.760,399.490 259.566 C 399.811 259.368,399.809 258.653,399.487 258.653 C 399.350 258.653,399.165 258.771,399.075 258.917 M394.633 263.315 C 394.289 263.659,394.453 263.937,395.002 263.937 C 395.310 263.937,395.506 263.798,395.448 263.623 C 395.319 263.237,394.878 263.070,394.633 263.315 M4.491 263.672 C 4.491 263.818,4.663 263.937,4.872 263.937 C 5.082 263.937,5.326 263.818,5.416 263.672 C 5.506 263.527,5.335 263.408,5.035 263.408 C 4.736 263.408,4.491 263.527,4.491 263.672 " stroke="none" fill="#fc747f" fill-rule="evenodd"></path></g></svg>